<svg width="190" height="69" viewBox="0 0 190 69" fill="none" xmlns="http://www.w3.org/2000/svg">
<path d="M77.5334 39.7614C78.6554 39.7614 79.6466 39.6111 80.5068 39.3292C81.367 39.0474 82.0777 38.7092 82.6761 38.3521C83.3493 37.9575 83.9477 37.4877 84.4527 36.9428L84.2095 41.058C83.6111 41.2459 82.9753 41.3962 82.2834 41.5278C81.6662 41.6405 80.9556 41.7533 80.1515 41.8472C79.3473 41.9412 78.4684 41.9975 77.5147 41.9975C76.2617 41.9975 75.0088 41.7908 73.7371 41.3962C72.4655 41.0016 71.306 40.3627 70.2775 39.4796C69.2302 38.5964 68.3887 37.469 67.7342 36.0784C67.0796 34.6879 66.7617 32.9967 66.7617 31.0237C66.7617 29.1446 67.0796 27.5286 67.7155 26.1569C68.3513 24.7851 69.1741 23.6389 70.1653 22.7557C71.1751 21.8538 72.2784 21.1961 73.4753 20.7451C74.6909 20.3129 75.8503 20.0874 76.9911 20.0874C77.9448 20.0874 78.7863 20.1438 79.497 20.2377C80.2263 20.3317 80.8247 20.4444 81.3296 20.5572C81.9094 20.6887 82.3956 20.8578 82.8257 21.027V25.1797C82.4143 24.6536 81.9281 24.2026 81.367 23.7704C80.8995 23.4134 80.3198 23.0752 79.6466 22.7933C78.9733 22.4926 78.1879 22.3423 77.2903 22.3423C76.5422 22.3423 75.7755 22.4926 75.0275 22.7933C74.2794 23.094 73.6062 23.5825 73.0078 24.259C72.4094 24.9355 71.9231 25.8186 71.5491 26.9273C71.1751 28.0359 70.9881 29.3889 70.9881 31.0049C70.9881 32.5833 71.1751 33.9175 71.5491 35.0074C71.9231 36.0972 72.4281 36.9992 73.0452 37.6944C73.6623 38.3897 74.3542 38.8971 75.1397 39.2165C75.9064 39.5923 76.7105 39.7614 77.5334 39.7614Z" fill="white"/>
<path d="M99.2263 38.7655C99.2263 39.3105 99.2824 39.7614 99.4133 40.1373C99.5442 40.5131 99.6938 40.8325 99.8434 41.058C100.03 41.3399 100.236 41.5654 100.461 41.7157H97.8798C97.3749 41.7157 96.9448 41.5842 96.5333 41.3023C96.1406 41.0204 95.8601 40.6634 95.6918 40.2312C95.5048 40.3815 95.2804 40.5694 94.9812 40.7761C94.682 40.9828 94.3453 41.1708 93.9339 41.3587C93.5412 41.5466 93.0924 41.7157 92.6062 41.8284C92.12 41.96 91.5963 42.0163 91.054 42.0163C90.4556 42.0163 89.8946 41.9412 89.3709 41.7908C88.8473 41.6405 88.3798 41.3962 87.9684 41.0768C87.557 40.7574 87.2391 40.344 86.9959 39.8366C86.7528 39.348 86.6406 38.7467 86.6406 38.0515C86.6406 37.0931 86.9024 36.3039 87.4074 35.6838C87.9123 35.0637 88.5855 34.5564 89.4083 34.1806C90.2499 33.8047 91.1849 33.5605 92.2322 33.4101C93.2794 33.2598 94.3641 33.1846 95.4674 33.1846V31.9069C95.4674 31.1552 95.2617 30.5351 94.8503 30.0842C94.4389 29.6332 93.803 29.3889 92.9054 29.3889C92.3631 29.3889 91.8581 29.4828 91.3532 29.652C90.8483 29.8211 90.4182 30.009 90.0068 30.2345C89.5579 30.4788 89.1278 30.7418 88.7351 31.0425V28.1863C89.1652 27.9984 89.6515 27.8292 90.1564 27.6789C90.6052 27.5662 91.1288 27.4534 91.7085 27.3407C92.2883 27.2279 92.9241 27.1716 93.6347 27.1716C94.4015 27.1716 95.1308 27.3219 95.7853 27.6038C96.4585 27.8856 97.0383 28.299 97.5432 28.8064C98.0481 29.3137 98.4408 29.8962 98.74 30.5727C99.0205 31.2492 99.1702 31.9632 99.1702 32.7337V38.7655H99.2263ZM90.3995 37.8072C90.3995 38.4461 90.5678 38.991 90.9044 39.4608C91.241 39.9306 91.8207 40.156 92.6623 40.156C93.0363 40.156 93.3916 40.1185 93.7095 40.0245C94.0274 39.9306 94.308 39.8178 94.5511 39.7051C94.7942 39.5735 94.9812 39.442 95.1495 39.3105C95.2991 39.1789 95.43 39.085 95.5422 38.991V34.3873C95.1869 34.406 94.7194 34.4624 94.1396 34.5564C93.5599 34.6503 92.9989 34.8194 92.4566 35.0449C91.9142 35.2892 91.428 35.6274 91.0353 36.0596C90.6052 36.5294 90.3995 37.0931 90.3995 37.8072Z" fill="white"/>
<path d="M107.698 40.1373C107.829 40.5131 107.978 40.8325 108.128 41.058C108.315 41.3399 108.521 41.5654 108.745 41.7157H102.555C102.78 41.5654 102.967 41.3399 103.154 41.058C103.303 40.8137 103.453 40.5131 103.584 40.1373C103.715 39.7614 103.771 39.2917 103.771 38.7655V23.3758C103.771 22.8309 103.715 22.3799 103.584 22.0041C103.453 21.6283 103.303 21.3088 103.154 21.0833C102.967 20.8015 102.78 20.576 102.555 20.3881L107.492 19.7868V38.7655C107.492 39.3105 107.567 39.7614 107.698 40.1373Z" fill="white"/>
<path d="M115.758 38.7655C115.758 39.3105 115.814 39.7614 115.945 40.1373C116.057 40.5131 116.207 40.8325 116.356 41.058C116.543 41.3399 116.749 41.5654 116.973 41.7157H110.821C111.045 41.5654 111.232 41.3399 111.419 41.058C111.569 40.8137 111.718 40.5131 111.849 40.1373C111.98 39.7614 112.036 39.2917 112.036 38.7655V30.723C112.036 30.1781 111.98 29.7271 111.849 29.3701C111.718 28.9943 111.569 28.6936 111.419 28.4681C111.232 28.1863 111.045 27.9608 110.821 27.7729L115.758 27.1716V38.7655ZM113.514 25.1797C112.897 25.1797 112.373 24.9542 111.943 24.5221C111.513 24.0899 111.288 23.5449 111.288 22.906C111.288 22.2859 111.513 21.7598 111.943 21.3276C112.373 20.8954 112.897 20.6699 113.514 20.6699C114.15 20.6699 114.692 20.8954 115.122 21.3276C115.552 21.7598 115.777 22.2859 115.777 22.906C115.777 23.5449 115.552 24.0899 115.122 24.5221C114.673 24.9542 114.131 25.1797 113.514 25.1797Z" fill="white"/>
<path d="M123.219 24.973C123.219 25.6495 123.5 26.232 124.042 26.7206C124.585 27.2092 125.258 27.6789 126.081 28.1111C126.885 28.5433 127.782 28.9943 128.736 29.4453C129.69 29.8962 130.569 30.4224 131.392 31.0425C132.196 31.6626 132.888 32.3766 133.43 33.2034C133.972 34.0302 134.253 35.0449 134.253 36.2288C134.253 38.0891 133.505 39.5172 132.046 40.5131C130.569 41.5278 128.474 42.0163 125.781 42.0163C124.846 42.0163 124.005 41.96 123.238 41.866C122.471 41.7721 121.817 41.6593 121.256 41.5466C120.601 41.415 120.022 41.2459 119.498 41.0768L119.236 36.7173C119.778 37.281 120.377 37.7696 121.088 38.2206C121.686 38.5964 122.397 38.9346 123.257 39.2353C124.117 39.5359 125.071 39.6863 126.137 39.6863C126.698 39.6863 127.221 39.6299 127.708 39.4984C128.194 39.3856 128.643 39.1977 129.017 38.9534C129.391 38.7092 129.69 38.4085 129.914 38.0515C130.139 37.6944 130.232 37.281 130.232 36.7925C130.232 36.0408 129.952 35.3832 129.409 34.8194C128.867 34.2557 128.194 33.7484 127.371 33.2598C126.567 32.7712 125.669 32.3015 124.715 31.8317C123.762 31.3619 122.883 30.8358 122.06 30.2533C121.256 29.6708 120.564 28.9755 120.022 28.2051C119.479 27.4346 119.199 26.4951 119.199 25.424C119.199 24.5784 119.386 23.8456 119.741 23.2067C120.115 22.5678 120.62 22.0041 121.275 21.5719C121.929 21.1209 122.714 20.7827 123.612 20.5384C124.51 20.2941 125.501 20.1814 126.567 20.1814C127.483 20.1814 128.325 20.2377 129.129 20.3317C129.914 20.4257 130.606 20.5384 131.186 20.6511C131.859 20.7827 132.476 20.9518 133.037 21.1209V25.2737C132.57 24.7475 132.009 24.2966 131.373 23.8644C130.831 23.5074 130.195 23.1691 129.447 22.8873C128.699 22.5866 127.857 22.4363 126.941 22.4363C125.875 22.4363 124.977 22.6618 124.285 23.1315C123.575 23.5637 123.219 24.1838 123.219 24.973Z" fill="white"/>
<path d="M151.794 27.8668C151.645 28.1111 151.495 28.4118 151.383 28.7688C151.271 29.1446 151.196 29.5956 151.196 30.1217V38.7655C151.196 39.3105 151.252 39.7614 151.383 40.1373C151.495 40.5131 151.645 40.8325 151.794 41.058C151.981 41.3399 152.187 41.5654 152.411 41.7157H149.195C148.84 41.7157 148.559 41.6405 148.335 41.509C148.11 41.3775 147.942 41.2083 147.811 41.0204C147.68 40.8325 147.587 40.6446 147.549 40.4567C147.493 40.2688 147.474 40.1185 147.474 40.0245C147.25 40.25 147.007 40.4755 146.708 40.7198C146.427 40.9641 146.091 41.1708 145.735 41.3775C145.361 41.5842 144.95 41.7345 144.464 41.8472C143.996 41.96 143.472 42.0351 142.911 42.0351C141.154 42.0351 139.826 41.509 138.966 40.4379C138.087 39.3668 137.656 37.7884 137.656 35.665V30.1405C137.656 29.5956 137.6 29.1446 137.469 28.7876C137.339 28.4118 137.189 28.1111 137.039 27.8856C136.852 27.6038 136.665 27.3783 136.441 27.1904H142.593C142.35 27.3783 142.145 27.6038 141.976 27.8856C141.827 28.1299 141.677 28.4306 141.565 28.7876C141.453 29.1634 141.378 29.6144 141.378 30.1405V36.2663C141.378 37.6381 141.64 38.6152 142.145 39.2165C142.668 39.799 143.323 40.0997 144.108 40.0997C144.781 40.0997 145.324 39.9869 145.754 39.7426C146.184 39.4984 146.521 39.2165 146.782 38.8971C147.044 38.5776 147.213 38.2394 147.325 37.9011C147.418 37.5629 147.474 37.2998 147.474 37.0931V30.1593C147.474 29.6144 147.418 29.1634 147.287 28.8064C147.156 28.4306 147.007 28.1299 146.857 27.9044C146.67 27.6226 146.483 27.3971 146.259 27.2092H152.411C152.187 27.3595 151.981 27.585 151.794 27.8668Z" fill="white"/>
<path d="M169.429 40.1373C169.541 40.5131 169.691 40.8325 169.841 41.058C170.028 41.3399 170.233 41.5654 170.458 41.7157H164.305C164.53 41.5654 164.717 41.3399 164.904 41.058C165.053 40.8137 165.203 40.5131 165.334 40.1373C165.465 39.7614 165.521 39.2917 165.521 38.7655V32.6397C165.521 31.2868 165.259 30.366 164.754 29.8587C164.23 29.3701 163.576 29.107 162.79 29.107C162.323 29.107 161.893 29.201 161.519 29.4077C161.145 29.6144 160.827 29.8399 160.546 30.1029C160.266 30.366 160.041 30.6291 159.854 30.8922C159.667 31.1552 159.518 31.3431 159.424 31.4935V38.7467C159.424 39.2917 159.48 39.7426 159.611 40.1185C159.724 40.4943 159.873 40.8137 160.023 41.0392C160.21 41.3211 160.415 41.5466 160.64 41.6969H154.487C154.712 41.5466 154.899 41.3211 155.086 41.0392C155.235 40.7949 155.385 40.4943 155.516 40.1185C155.647 39.7426 155.703 39.2729 155.703 38.7467V30.7042C155.703 30.1593 155.647 29.7083 155.516 29.3513C155.385 28.9755 155.235 28.6748 155.086 28.4493C154.899 28.1675 154.712 27.942 154.487 27.7541L159.424 27.1528V28.8627C159.892 28.4306 160.49 28.0359 161.22 27.6789C161.949 27.3219 162.809 27.1528 163.8 27.1528C165.558 27.1528 166.905 27.6413 167.84 28.5997C168.775 29.558 169.242 31.0989 169.242 33.2222V38.7467C169.261 39.3105 169.317 39.7614 169.429 40.1373Z" fill="white"/>
<path d="M69.5107 62.6675V48.5931H75.2519C77.122 48.5931 78.5806 49.0441 79.6466 49.9273C80.7125 50.8105 81.2361 52.0319 81.2361 53.6103C81.2361 54.6438 80.993 55.527 80.5068 56.2786C80.0206 57.0302 79.3474 57.594 78.4497 57.9886C77.5708 58.3832 76.5048 58.5899 75.2519 58.5899H70.932L72.0914 57.406V62.6863H69.5107V62.6675ZM72.1102 57.6503L70.9507 56.4101H75.1584C76.2991 56.4101 77.1781 56.1658 77.7578 55.6585C78.3375 55.1699 78.6367 54.4747 78.6367 53.5915C78.6367 52.6895 78.3375 51.9943 77.7578 51.5245C77.1781 51.0359 76.3178 50.7917 75.1584 50.7917H70.9507L72.1102 49.5139V57.6503ZM78.6741 62.6675L75.1397 57.5564H77.9261L81.4792 62.6675H78.6741Z" fill="#EE6802"/>
<path d="M88.6977 62.799C87.6131 62.799 86.622 62.5547 85.7804 62.085C84.9202 61.6152 84.2469 60.9575 83.7607 60.1307C83.2745 59.3039 83.0127 58.3456 83.0127 57.2933C83.0127 56.2222 83.2558 55.2639 83.7607 54.4559C84.2469 53.6291 84.9202 52.9902 85.7804 52.5204C86.6407 52.0506 87.6131 51.8252 88.6977 51.8252C89.8011 51.8252 90.7922 52.0506 91.6525 52.5204C92.5127 52.9902 93.1859 53.6291 93.6721 54.4559C94.1584 55.2827 94.4015 56.2222 94.4015 57.3121C94.4015 58.3644 94.1584 59.3227 93.6721 60.1495C93.1859 60.9763 92.5127 61.634 91.6525 62.1038C90.7922 62.5735 89.8011 62.799 88.6977 62.799ZM88.6977 60.6569C89.3149 60.6569 89.8572 60.5253 90.3434 60.2623C90.8296 59.9992 91.2036 59.6046 91.4655 59.0972C91.746 58.5899 91.8769 57.9886 91.8769 57.3121C91.8769 56.6168 91.746 56.0155 91.4655 55.5082C91.1849 55.0008 90.8109 54.625 90.3434 54.3431C89.8572 54.0801 89.3149 53.9485 88.7164 53.9485C88.0993 53.9485 87.557 54.0801 87.0895 54.3431C86.622 54.6062 86.2479 55.0008 85.9674 55.5082C85.6869 56.0155 85.556 56.6168 85.556 57.3121C85.556 57.9886 85.6869 58.5899 85.9674 59.0972C86.2479 59.6046 86.622 59.9992 87.0895 60.2623C87.557 60.5253 88.0993 60.6569 88.6977 60.6569Z" fill="#EE6802"/>
<path d="M101.601 62.799C100.516 62.799 99.5253 62.5547 98.6837 62.085C97.8235 61.6152 97.1503 60.9575 96.664 60.1307C96.1778 59.3039 95.916 58.3456 95.916 57.2933C95.916 56.2222 96.1591 55.2639 96.664 54.4559C97.1503 53.6291 97.8235 52.9902 98.6837 52.5204C99.544 52.0506 100.516 51.8252 101.601 51.8252C102.704 51.8252 103.696 52.0506 104.556 52.5204C105.416 52.9902 106.089 53.6291 106.575 54.4559C107.062 55.2827 107.305 56.2222 107.305 57.3121C107.305 58.3644 107.062 59.3227 106.575 60.1495C106.089 60.9763 105.416 61.634 104.556 62.1038C103.696 62.5735 102.704 62.799 101.601 62.799ZM101.601 60.6569C102.218 60.6569 102.76 60.5253 103.247 60.2623C103.733 59.9992 104.107 59.6046 104.369 59.0972C104.649 58.5899 104.78 57.9886 104.78 57.3121C104.78 56.6168 104.649 56.0155 104.369 55.5082C104.088 55.0008 103.714 54.625 103.247 54.3431C102.76 54.0801 102.218 53.9485 101.62 53.9485C101.003 53.9485 100.46 54.0801 99.9928 54.3431C99.5253 54.6062 99.1512 55.0008 98.8707 55.5082C98.5902 56.0155 98.4593 56.6168 98.4593 57.3121C98.4593 57.9886 98.5902 58.5899 98.8707 59.0972C99.1512 59.6046 99.5253 59.9992 99.9928 60.2623C100.46 60.5253 101.003 60.6569 101.601 60.6569Z" fill="#EE6802"/>
<path d="M108.296 54.0237V52.0131H115.421V54.0237H108.296ZM110.054 62.6675V51.3366C110.054 50.2092 110.391 49.3072 111.045 48.6307C111.7 47.9542 112.654 47.616 113.869 47.616C114.318 47.616 114.729 47.6724 115.122 47.7475C115.515 47.8415 115.852 47.9918 116.113 48.1985L115.44 50.0964C115.253 49.9461 115.047 49.8333 114.804 49.7582C114.561 49.683 114.318 49.6454 114.056 49.6454C113.533 49.6454 113.14 49.7957 112.878 50.0776C112.616 50.3595 112.485 50.7917 112.485 51.3742V52.5768L112.56 53.7042V62.6675H110.054ZM118.376 50.1528C117.909 50.1528 117.535 50.0024 117.217 49.7018C116.917 49.4011 116.768 49.0441 116.768 48.6307C116.768 48.1985 116.917 47.8415 117.217 47.5596C117.516 47.2778 117.909 47.1274 118.376 47.1274C118.844 47.1274 119.218 47.259 119.536 47.5408C119.835 47.8227 119.984 48.1609 119.984 48.5743C119.984 49.0253 119.835 49.3823 119.536 49.683C119.236 50.0024 118.862 50.1528 118.376 50.1528ZM117.142 62.6675V51.9379H119.648V62.6675H117.142Z" fill="#EE6802"/>
<path d="M122.92 62.6675V51.9379H125.295V54.8317L124.884 53.9485C125.258 53.2721 125.8 52.7459 126.511 52.3701C127.222 51.9943 128.044 51.8252 128.979 51.8252C129.84 51.8252 130.588 51.9943 131.28 52.3325C131.953 52.6707 132.477 53.1781 132.869 53.8734C133.262 54.5686 133.449 55.4518 133.449 56.5417V62.6863H130.943V56.8611C130.943 55.9028 130.719 55.2075 130.27 54.7377C129.821 54.268 129.204 54.0425 128.4 54.0425C127.82 54.0425 127.296 54.1552 126.848 54.3995C126.399 54.6438 126.043 55.0008 125.8 55.4706C125.557 55.9404 125.426 56.5417 125.426 57.2745V62.7051H122.92V62.6675Z" fill="#EE6802"/>
<path d="M141.172 62.1789C140.162 62.1789 139.246 61.9534 138.423 61.5212C137.6 61.089 136.964 60.4877 136.478 59.6985C136.011 58.9281 135.768 58.0073 135.768 56.9551C135.768 55.9216 136.011 55.0196 136.478 54.2492C136.946 53.4788 137.6 52.8774 138.423 52.4453C139.246 52.0131 140.162 51.8064 141.172 51.8064C142.07 51.8064 142.893 51.9943 143.622 52.3513C144.351 52.7083 144.912 53.2721 145.361 54.0425C145.791 54.8129 146.016 55.79 146.016 56.9739C146.016 58.1577 145.791 59.1536 145.361 59.924C144.931 60.6944 144.351 61.2582 143.622 61.634C142.893 61.991 142.07 62.1789 141.172 62.1789ZM141.49 66.7075C140.499 66.7075 139.545 66.576 138.591 66.3129C137.656 66.0498 136.89 65.674 136.273 65.1855L137.395 63.2876C137.862 63.6822 138.46 63.9828 139.171 64.2271C139.882 64.4526 140.611 64.5841 141.34 64.5841C142.519 64.5841 143.379 64.3211 143.921 63.7761C144.463 63.2312 144.744 62.4232 144.744 61.3333V59.4167L144.95 56.9926L144.875 54.5686V51.9567H147.25V61.0703C147.25 63.0057 146.764 64.4526 145.772 65.3546C144.781 66.2377 143.36 66.7075 141.49 66.7075ZM141.546 60.0556C142.182 60.0556 142.724 59.924 143.229 59.6609C143.715 59.3979 144.108 59.0408 144.389 58.5711C144.669 58.1013 144.8 57.5752 144.8 56.9739C144.8 56.3725 144.669 55.8464 144.389 55.3766C144.108 54.9069 143.734 54.5498 143.229 54.3056C142.743 54.0613 142.182 53.9297 141.546 53.9297C140.91 53.9297 140.349 54.0613 139.863 54.3056C139.358 54.5498 138.984 54.9069 138.704 55.3766C138.423 55.8464 138.292 56.3725 138.292 56.9739C138.292 57.5752 138.423 58.1013 138.704 58.5711C138.984 59.0408 139.358 59.3979 139.863 59.6609C140.349 59.924 140.91 60.0556 141.546 60.0556Z" fill="#EE6802"/>
<path d="M33.942 32.0948C26.8731 38.2957 19.7855 44.4591 12.6979 50.6225C12.4548 50.8292 12.193 51.0172 11.8563 51.2802C11.8189 50.9984 11.7815 50.8856 11.7815 50.7541C11.7815 45.4926 11.7628 40.2312 11.8189 34.9698C11.8189 34.5564 12.1556 34.049 12.4922 33.7484C17.1113 29.6895 21.7491 25.6495 26.3869 21.6095C26.5552 21.4591 26.7609 21.3276 27.1349 21.0833C27.1349 25.067 27.1349 28.844 27.1349 32.8088C27.4715 32.5833 27.6585 32.4894 27.8081 32.3578C29.0424 31.2868 30.2392 30.1969 31.4922 29.1634C32.0719 28.6936 32.315 28.1675 32.315 27.3971C32.2963 21.7598 32.3337 16.1225 32.3337 10.4853C32.3337 10.2786 32.2776 10.0907 32.2215 9.79003C31.941 9.99673 31.7353 10.1283 31.5483 10.2786C23.4882 17.2876 15.4469 24.3154 7.38685 31.3056C6.84453 31.7753 6.62012 32.2639 6.62012 32.9779C6.63882 42.5237 6.65752 52.0694 6.65752 61.634C6.65752 61.8971 6.71362 62.1413 6.75102 62.5735C7.12504 62.2729 7.36815 62.085 7.59256 61.8783C16.3445 54.2492 25.1152 46.6201 33.8485 38.9722C34.1851 38.6716 34.4656 38.5212 34.7461 38.5212V31.6814C34.4843 31.7002 34.2412 31.8129 33.942 32.0948Z" fill="white"/>
<path d="M34.3721 48.7623H29.061V54.0989H34.3721V48.7623Z" fill="white"/>
<path d="M34.3721 55.8088H29.061V61.1454H34.3721V55.8088Z" fill="white"/>
<path d="M62.0117 61.991C62.2174 62.1601 62.4418 62.3105 62.7971 62.5923C62.8158 62.1225 62.8532 61.8783 62.8532 61.634C62.8532 55.9967 62.8719 50.3595 62.8345 44.7222C62.8345 44.2525 62.4979 43.6511 62.1426 43.3317C55.7843 37.7508 49.3887 32.2075 43.0117 26.6454C42.7873 26.4387 42.432 26.1944 42.432 25.9502C42.3759 24.3717 42.4133 22.8121 42.4133 20.9894C49.2952 26.9837 55.9713 32.8088 62.8719 38.8031C62.8719 36.5858 62.9093 34.6503 62.8532 32.7149C62.8345 32.2827 62.5914 31.7377 62.2735 31.4559C54.1761 24.3529 46.0412 17.2876 37.9064 10.2222C37.7381 10.0719 37.5324 9.95915 37.2519 9.77124C37.2332 10.0531 37.1958 10.2034 37.1958 10.335C37.1958 16.1225 37.1958 21.9289 37.2519 27.7165C37.2519 28.1299 37.5511 28.6748 37.8877 28.9567C44.246 34.5376 50.6416 40.0809 56.9999 45.6618C57.2804 45.906 57.6544 46.2067 57.6731 46.4886C57.7479 48.0294 57.7105 49.5703 57.7105 51.2802C57.3926 51.0359 57.2056 50.9232 57.056 50.7917C49.8936 44.5719 42.7312 38.3333 35.5875 32.0948C35.2696 31.8129 35.0265 31.6626 34.7646 31.6626V38.5024C35.0265 38.5024 35.307 38.6528 35.6436 38.9534C44.3956 46.6765 53.2036 54.3243 62.0117 61.991Z" fill="#FF9B21"/>
<path d="M41.4038 48.7623H36.0928V54.0989H41.4038V48.7623Z" fill="white"/>
<path d="M41.4038 55.8088H36.0928V61.1454H41.4038V55.8088Z" fill="white"/>
<path d="M145.941 25.2737C148.896 20.5384 155.759 17.0245 162.903 19.1291C170.046 21.2337 174.478 28.0172 173.936 35.1953C173.169 28.2239 169.822 23.1879 163.202 20.8578C156.563 18.509 150.784 20.3881 145.941 25.2737Z" fill="#FF9B21"/>
<path d="M160.49 9.79003C160.602 12.1201 160.715 14.4314 160.827 16.7614C160.228 16.6863 159.667 16.5923 159.069 16.5172C159.499 14.3562 159.966 12.0825 160.434 9.79003C160.434 9.77124 160.471 9.77124 160.49 9.79003Z" fill="#FF9B21"/>
<path d="M171.094 22.0041C173.057 20.6887 175.002 19.4109 176.928 18.1332C176.947 18.152 176.947 18.1707 176.966 18.1895C175.395 19.9183 173.843 21.6471 172.253 23.4134C171.86 22.9248 171.486 22.4739 171.094 22.0041Z" fill="#FF9B21"/>
<path d="M148.11 20.2565C147.643 20.6511 147.213 21.0082 146.727 21.4216C145.455 19.4861 144.183 17.5694 142.912 15.6528C142.93 15.634 142.949 15.6152 142.986 15.5776C144.669 17.1373 146.371 18.6781 148.11 20.2565Z" fill="#FF9B21"/>
<path d="M148.036 12.1201C149.307 14.0743 150.598 16.0474 151.888 18.0392C151.346 18.3023 150.841 18.5654 150.261 18.8472C149.494 16.6111 148.746 14.375 147.979 12.1577C147.998 12.1389 148.017 12.1201 148.036 12.1201Z" fill="#FF9B21"/>
<path d="M143.977 24.8603C142.238 23.2819 140.518 21.741 138.797 20.2002C138.816 20.1814 138.835 20.1626 138.835 20.1438C140.873 21.2149 142.93 22.2859 144.987 23.3758C144.651 23.8644 144.333 24.3341 143.977 24.8603Z" fill="#FF9B21"/>
<path d="M166.456 11.1806C165.988 13.4167 165.521 15.6528 165.053 17.9077C164.474 17.701 163.931 17.5319 163.352 17.3252C164.361 15.2582 165.353 13.21 166.344 11.1618C166.381 11.1618 166.418 11.1806 166.456 11.1806Z" fill="#FF9B21"/>
<path d="M180.22 23.4134C178.312 24.6724 176.405 25.9314 174.46 27.1904C174.179 26.6266 173.936 26.1005 173.674 25.5556C175.862 24.8039 178.013 24.0711 180.145 23.3194C180.182 23.357 180.201 23.3758 180.22 23.4134Z" fill="#FF9B21"/>
<path d="M169.167 20.2753C168.662 19.9183 168.195 19.5989 167.69 19.2418C169.223 17.5131 170.757 15.8031 172.272 14.0931C172.309 14.1119 172.328 14.1307 172.365 14.1495C171.299 16.1601 170.252 18.1895 169.167 20.2753Z" fill="#FF9B21"/>
<path d="M182.37 29.6708C180.164 30.366 177.938 31.0613 175.713 31.7753C175.601 31.174 175.507 30.5915 175.395 29.9902C177.733 29.8587 180.052 29.7271 182.352 29.6144C182.352 29.6332 182.37 29.652 182.37 29.6708Z" fill="#FF9B21"/>
<path d="M175.694 36.1724C175.787 35.5523 175.862 34.9886 175.937 34.3873C178.106 34.8382 180.35 35.2892 182.576 35.7402C182.576 35.7778 182.576 35.7966 182.576 35.8341C180.294 35.9469 178.031 36.0596 175.694 36.1724Z" fill="#FF9B21"/>
<path d="M154.375 10.1471C155.067 12.3456 155.74 14.5441 156.451 16.7802C155.852 16.893 155.273 17.0057 154.674 17.0997C154.543 14.7696 154.431 12.4583 154.3 10.1471C154.319 10.1471 154.338 10.1471 154.375 10.1471Z" fill="#FF9B21"/>
</svg>
