<svg width="54" height="54" viewBox="0 0 54 54" fill="none" xmlns="http://www.w3.org/2000/svg">
<g clip-path="url(#clip0_116_2311)">
<path d="M52.6357 0.907851C52.4814 0.843975 52.3117 0.827276 52.148 0.859868C51.9843 0.892459 51.834 0.972876 51.716 1.09094L47.25 5.55691L42.784 1.09094C42.6258 0.932766 42.4112 0.843906 42.1875 0.843906C41.9638 0.843906 41.7492 0.932766 41.591 1.09094L37.125 5.55691L32.659 1.09094C32.5008 0.932766 32.2862 0.843906 32.0625 0.843906C31.8388 0.843906 31.6242 0.932766 31.466 1.09094L27 5.55691L22.534 1.09094C22.416 0.97298 22.2657 0.89265 22.1021 0.860108C21.9384 0.827567 21.7688 0.844276 21.6146 0.908122C21.4605 0.971969 21.3287 1.08009 21.236 1.21881C21.1433 1.35753 21.0938 1.52062 21.0938 1.68748V7.59373H1.6875C1.46372 7.59373 1.24911 7.68262 1.09088 7.84085C0.932645 7.99909 0.84375 8.2137 0.84375 8.43748V11.8125C0.84375 12.0363 0.932645 12.2509 1.09088 12.4091C1.24911 12.5673 1.46372 12.6562 1.6875 12.6562H21.0938V24.4687H1.6875C1.46372 24.4687 1.24911 24.5576 1.09088 24.7159C0.932645 24.8741 0.84375 25.0887 0.84375 25.3125V28.6875C0.84375 28.9113 0.932645 29.1259 1.09088 29.2841C1.24911 29.4423 1.46372 29.5312 1.6875 29.5312H21.0938V41.3437H1.6875C1.46372 41.3437 1.24911 41.4326 1.09088 41.5909C0.932645 41.7491 0.84375 41.9637 0.84375 42.1875V45.5625C0.84375 45.7863 0.932645 46.0009 1.09088 46.1591C1.24911 46.3173 1.46372 46.4062 1.6875 46.4062H21.0938V47.25C21.0938 47.4737 21.1827 47.6883 21.341 47.8465L26.4035 52.909C26.5617 53.0672 26.7763 53.156 27 53.156C27.2237 53.156 27.4383 53.0672 27.5965 52.909L32.0625 48.443L36.5285 52.909C36.6867 53.0672 36.9013 53.156 37.125 53.156C37.3487 53.156 37.5633 53.0672 37.7215 52.909L42.1875 48.443L46.6535 52.909C46.8117 53.0672 47.0263 53.156 47.25 53.156C47.4737 53.156 47.6883 53.0672 47.8465 52.909L52.909 47.8465C53.0673 47.6883 53.1562 47.4737 53.1562 47.25V1.68748C53.1563 1.52061 53.1069 1.35748 53.0142 1.21871C52.9215 1.07994 52.7898 0.97176 52.6357 0.907851ZM21.0938 44.7187H2.53125V43.0312H21.0938V44.7187ZM21.0938 27.8437H2.53125V26.1562H21.0938V27.8437ZM21.0938 10.9687H2.53125V9.28123H21.0938V10.9687ZM26.1562 50.2757L22.7812 46.9007V3.72429L26.1562 7.09929V50.2757ZM31.2188 46.9007L27.8438 50.2757V7.09929L31.2188 3.72429V46.9007ZM36.2812 50.2757L32.9062 46.9007V3.72429L36.2812 7.09929V50.2757ZM41.3438 46.9007L37.9688 50.2757V7.09929L41.3438 3.72429V46.9007ZM46.4062 50.2757L43.0312 46.9007V3.72429L46.4062 7.09929V50.2757ZM51.4688 46.9007L48.0938 50.2757V7.09929L51.4688 3.72429V46.9007Z" fill="#FF9B21"/>
</g>
<defs>
<clipPath id="clip0_116_2311">
<rect width="54" height="54" fill="white"/>
</clipPath>
</defs>
</svg>
