<svg width="54" height="54" viewBox="0 0 54 54" fill="none" xmlns="http://www.w3.org/2000/svg">
<g clip-path="url(#clip0_116_2272)">
<path d="M49.1158 45.492C49.4518 45.492 49.7158 45.228 49.7158 44.892V20.724C49.7158 20.532 49.6318 20.352 49.4758 20.244L30.0958 5.79596C29.8798 5.63996 29.5918 5.63996 29.3758 5.79596L9.99582 20.244C9.83982 20.352 9.75582 20.532 9.75582 20.724V37.8C9.75582 38.136 10.0198 38.4 10.3558 38.4C10.6918 38.4 10.9558 38.136 10.9558 37.8V21.024L29.7358 7.03196L48.5158 21.024V44.892C48.5158 45.228 48.7918 45.492 49.1158 45.492Z" fill="#FF9B21"/>
<path d="M13.5361 15.42C13.8721 15.42 14.1361 15.156 14.1361 14.82V6.41997H18.6721V10.656C18.6721 10.992 18.9361 11.256 19.2721 11.256C19.6081 11.256 19.8721 10.992 19.8721 10.656V5.81997C19.8721 5.66397 19.8121 5.50797 19.6921 5.39997C19.5721 5.29197 19.4281 5.21997 19.2721 5.21997H13.5361C13.2001 5.21997 12.9361 5.48397 12.9361 5.81997V14.82C12.9361 15.156 13.2001 15.42 13.5361 15.42Z" fill="#FF9B21"/>
<path d="M27.4078 38.292C27.4438 38.292 27.4798 38.292 27.5278 38.28C27.5638 38.268 27.5998 38.256 27.6358 38.244C27.6718 38.232 27.7078 38.208 27.7438 38.184C27.7798 38.16 27.8038 38.136 27.8398 38.112C27.8638 38.088 27.8878 38.052 27.9118 38.016C27.9358 37.98 27.9478 37.944 27.9598 37.908C27.9718 37.872 27.9838 37.836 27.9958 37.8C28.0078 37.764 28.0078 37.728 28.0078 37.68C28.0078 37.644 28.0078 37.608 27.9958 37.56C27.9838 37.524 27.9718 37.488 27.9598 37.452C27.9478 37.416 27.9238 37.38 27.9118 37.344C27.8878 37.308 27.8638 37.284 27.8398 37.248C27.8158 37.224 27.7798 37.2 27.7438 37.176C27.7078 37.152 27.6718 37.14 27.6358 37.116C27.5998 37.104 27.5638 37.092 27.5278 37.08C27.4558 37.068 27.3718 37.068 27.2878 37.08L27.1798 37.116C27.1438 37.128 27.1078 37.152 27.0718 37.176C27.0358 37.2 27.0118 37.224 26.9758 37.248C26.9518 37.272 26.9278 37.308 26.9038 37.344C26.8798 37.38 26.8678 37.416 26.8438 37.452C26.8318 37.488 26.8198 37.524 26.8078 37.56C26.7958 37.596 26.7958 37.632 26.7958 37.68C26.7958 37.716 26.7958 37.764 26.8078 37.8C26.8198 37.836 26.8318 37.872 26.8438 37.908C26.8558 37.944 26.8798 37.98 26.9038 38.016C26.9278 38.052 26.9518 38.076 26.9758 38.112C26.9998 38.136 27.0358 38.16 27.0718 38.184C27.1078 38.208 27.1438 38.22 27.1798 38.244C27.2158 38.256 27.2518 38.268 27.2878 38.28C27.3238 38.292 27.3718 38.292 27.4078 38.292Z" fill="#FF9B21"/>
<path d="M25.1161 45.4921C25.4521 45.4921 25.7161 45.2281 25.7161 44.8921V31.2241C25.7161 31.1521 25.7761 31.1041 25.8361 31.1041H33.6361C33.7081 31.1041 33.7561 31.1641 33.7561 31.2241V44.8921C33.7561 45.2281 34.0201 45.4921 34.3561 45.4921C34.6921 45.4921 34.9561 45.2281 34.9561 44.8921V31.2241C34.9561 30.4921 34.3681 29.9041 33.6361 29.9041H25.8361C25.1041 29.9041 24.5161 30.4921 24.5161 31.2241V44.8921C24.5161 45.2161 24.7801 45.4921 25.1161 45.4921Z" fill="#FF9B21"/>
<path d="M5.38784 21.324H10.3438C10.6798 21.324 10.9438 21.06 10.9438 20.724C10.9438 20.388 10.6798 20.124 10.3438 20.124H7.23584L29.7238 3.80401L52.2118 20.124H49.1038C48.7678 20.124 48.5038 20.388 48.5038 20.724C48.5038 21.06 48.7678 21.324 49.1038 21.324H54.0718C54.3358 21.324 54.5638 21.156 54.6478 20.904C54.7318 20.652 54.6358 20.388 54.4318 20.232L30.0838 2.58001C29.8678 2.42401 29.5918 2.42401 29.3758 2.58001L5.03984 20.244C4.82384 20.4 4.73984 20.664 4.82384 20.916C4.90784 21.168 5.13584 21.324 5.38784 21.324Z" fill="#FF9B21"/>
<path d="M17.4836 28.4641H24.8756C25.2116 28.4641 25.4756 28.2001 25.4756 27.8641V20.4721C25.4756 20.1361 25.2116 19.8721 24.8756 19.8721H17.4836C17.1476 19.8721 16.8836 20.1361 16.8836 20.4721V27.8641C16.8836 28.2001 17.1596 28.4641 17.4836 28.4641ZM24.2876 27.2641H18.0956V21.0721H24.2876V27.2641Z" fill="#FF9B21"/>
<path d="M21.1915 28.4641C21.5275 28.4641 21.7915 28.2001 21.7915 27.8641V20.4721C21.7915 20.1361 21.5275 19.8721 21.1915 19.8721C20.8555 19.8721 20.5915 20.1361 20.5915 20.4721V27.8641C20.5915 28.2001 20.8555 28.4641 21.1915 28.4641Z" fill="#FF9B21"/>
<path d="M34.5837 28.4641H41.9757C42.3117 28.4641 42.5757 28.2001 42.5757 27.8641V20.4721C42.5757 20.1361 42.3117 19.8721 41.9757 19.8721H34.5837C34.2477 19.8721 33.9837 20.1361 33.9837 20.4721V27.8641C33.9837 28.2001 34.2477 28.4641 34.5837 28.4641ZM41.3757 27.2641H35.1837V21.0721H41.3757V27.2641Z" fill="#FF9B21"/>
<path d="M38.2799 28.4641C38.6159 28.4641 38.8799 28.2001 38.8799 27.8641V20.4721C38.8799 20.1361 38.6159 19.8721 38.2799 19.8721C37.9439 19.8721 37.6799 20.1361 37.6799 20.4721V27.8641C37.6799 28.2001 37.9439 28.4641 38.2799 28.4641Z" fill="#FF9B21"/>
<path d="M34.5837 24.7681H41.9757C42.3117 24.7681 42.5757 24.5041 42.5757 24.1681C42.5757 23.8321 42.3117 23.5681 41.9757 23.5681H34.5837C34.2477 23.5681 33.9837 23.8321 33.9837 24.1681C33.9837 24.5041 34.2477 24.7681 34.5837 24.7681Z" fill="#FF9B21"/>
<path d="M17.4836 24.7681H24.8756C25.2116 24.7681 25.4756 24.5041 25.4756 24.1681C25.4756 23.8321 25.2116 23.5681 24.8756 23.5681H17.4836C17.1476 23.5681 16.8836 23.8321 16.8836 24.1681C16.8836 24.5041 17.1596 24.7681 17.4836 24.7681Z" fill="#FF9B21"/>
<path d="M29.7359 18.432C31.8599 18.432 33.5879 16.704 33.5879 14.58C33.5879 12.456 31.8599 10.728 29.7359 10.728C27.6119 10.728 25.8839 12.456 25.8839 14.58C25.8839 16.704 27.6119 18.432 29.7359 18.432ZM29.7359 11.94C31.1999 11.94 32.3879 13.128 32.3879 14.592C32.3879 16.056 31.1999 17.244 29.7359 17.244C28.2719 17.244 27.0839 16.056 27.0839 14.592C27.0839 13.128 28.2719 11.94 29.7359 11.94Z" fill="#FF9B21"/>
<path d="M20.7118 48.228H51.0118C51.3478 48.228 51.6118 47.964 51.6118 47.628V44.88C51.6118 44.544 51.3478 44.28 51.0118 44.28H19.9318C19.5958 44.28 19.3318 44.544 19.3318 44.88C19.3318 45.216 19.5958 45.48 19.9318 45.48H50.4118V47.028H20.6998C20.3638 47.028 20.0998 47.292 20.0998 47.628C20.0998 47.964 20.3758 48.228 20.7118 48.228Z" fill="#FF9B21"/>
<path d="M9.20421 41.676C9.36021 41.676 9.51621 41.616 9.62421 41.496C9.86421 41.256 9.86421 40.884 9.62421 40.644L6.30021 37.32C6.14421 37.164 5.92821 37.104 5.72421 37.164L4.09221 37.596L1.87221 35.376L2.20821 34.14L3.30021 35.244C3.61221 35.556 4.00821 35.712 4.44021 35.712C4.51221 35.712 4.58421 35.712 4.68021 35.688C5.02821 35.64 5.34021 35.472 5.58021 35.232C5.82021 34.992 5.9882 34.68 6.0362 34.332C6.1082 33.828 5.94021 33.312 5.58021 32.952L4.4762 31.86L5.71221 31.524L7.93221 33.744L7.50021 35.376C7.44021 35.58 7.5002 35.808 7.6562 35.952L10.9802 39.276C11.2202 39.516 11.5922 39.516 11.8322 39.276C12.0722 39.036 12.0722 38.664 11.8322 38.424L8.74821 35.34L9.18021 33.708C9.24021 33.504 9.18021 33.276 9.02421 33.132L6.31221 30.42C6.15621 30.264 5.9402 30.204 5.7362 30.264L3.16821 30.948C2.9882 30.996 2.83221 31.128 2.76021 31.296C2.66421 31.524 2.71221 31.776 2.89221 31.956L4.72821 33.792C4.82421 33.888 4.86021 34.02 4.84821 34.14C4.83621 34.236 4.80021 34.308 4.72821 34.368C4.66821 34.428 4.58421 34.476 4.50021 34.488H4.44021C4.33221 34.488 4.22421 34.44 4.14021 34.368L2.30421 32.532C2.14821 32.376 1.93221 32.316 1.7282 32.376C1.52421 32.436 1.3562 32.592 1.30821 32.796L0.612206 35.376C0.552207 35.58 0.612206 35.808 0.768205 35.952L3.48021 38.664C3.63621 38.82 3.8522 38.88 4.0562 38.82L5.68821 38.388L8.76021 41.46C8.89221 41.616 9.04821 41.676 9.20421 41.676Z" fill="#FF9B21"/>
<path d="M16.4281 51.3839C16.4761 51.3839 16.5361 51.3719 16.5841 51.3599L19.1641 50.6639C19.3681 50.6039 19.5361 50.4479 19.5841 50.2439C19.6441 50.0399 19.5841 49.8119 19.4281 49.6679L17.3041 47.5439L17.8921 46.9559L20.0041 49.0679C20.1121 49.1879 20.2681 49.2599 20.4361 49.2599C20.7241 49.2599 20.9641 49.0559 21.0241 48.7919L21.7081 46.2359C21.7681 46.0319 21.7081 45.8039 21.5521 45.6599L18.8401 42.9479C18.6841 42.7919 18.4681 42.7319 18.2641 42.7919L16.6321 43.2239L13.5481 40.1519C13.3081 39.9119 12.9361 39.9119 12.6961 40.1519C12.4561 40.3919 12.4561 40.7639 12.6961 41.0039L16.0201 44.3279C16.1761 44.4839 16.3921 44.5439 16.5961 44.4839L18.2281 44.0519L20.4481 46.2719L20.1121 47.5079L18.5761 45.9719C18.1801 45.5759 17.5441 45.5759 17.1601 45.9719L16.2961 46.8359C15.9001 47.2319 15.9001 47.8559 16.2961 48.2519L17.8321 49.7879L16.5961 50.1239L14.3761 47.9039L14.8081 46.2719C14.8681 46.0679 14.8081 45.8399 14.6521 45.6959L11.3281 42.3719C11.0881 42.1319 10.7161 42.1319 10.4761 42.3719C10.2361 42.6119 10.2361 42.9839 10.4761 43.2239L13.5601 46.2839L13.1281 47.9159C13.0681 48.1199 13.1281 48.3479 13.2841 48.4919L15.9961 51.2039C16.1161 51.3239 16.2601 51.3839 16.4281 51.3839Z" fill="#FF9B21"/>
<path d="M9.80401 44.496C9.96001 44.496 10.116 44.436 10.224 44.316L18.132 36.408L19.224 35.868C19.356 35.808 19.452 35.7 19.512 35.568L20.724 32.76C20.82 32.532 20.772 32.268 20.592 32.1L19.884 31.392C19.716 31.212 19.452 31.164 19.224 31.26L16.416 32.472C16.284 32.532 16.176 32.628 16.116 32.76L15.576 33.852L7.668 41.76C7.42801 42 7.42801 42.372 7.668 42.612C7.908 42.852 8.28001 42.852 8.52001 42.612L16.488 34.644C16.536 34.596 16.572 34.548 16.608 34.488L17.088 33.504L19.32 32.544L19.452 32.676L18.492 34.908L17.508 35.388C17.448 35.412 17.4 35.46 17.352 35.508L9.38401 43.476C9.14401 43.716 9.14401 44.088 9.38401 44.328C9.49201 44.436 9.64801 44.496 9.80401 44.496Z" fill="#FF9B21"/>
<path d="M4.04379 50.688C4.54779 50.688 5.01579 50.496 5.36379 50.136L10.7038 44.796C10.8118 44.688 10.8838 44.532 10.8838 44.376C10.8838 44.22 10.8238 44.064 10.7038 43.956L8.03979 41.28C7.79979 41.04 7.42779 41.04 7.18779 41.28L1.84779 46.62C1.49979 46.968 1.29579 47.436 1.29579 47.94C1.29579 48.444 1.48779 48.912 1.84779 49.26L2.72379 50.136C3.07179 50.496 3.53979 50.688 4.04379 50.688ZM9.43179 44.376L4.51179 49.296C4.37979 49.428 4.22379 49.488 4.04379 49.488C3.86379 49.488 3.69579 49.416 3.57579 49.296L2.69979 48.42C2.56779 48.288 2.50779 48.132 2.50779 47.952C2.50779 47.772 2.57979 47.604 2.69979 47.484L7.61979 42.564L9.43179 44.376Z" fill="#FF9B21"/>
<path d="M8.68809 46.572C8.84409 46.572 9.00009 46.512 9.10809 46.392C9.34809 46.152 9.34809 45.78 9.10809 45.54L6.43209 42.864C6.19209 42.624 5.82009 42.624 5.58009 42.864C5.34009 43.104 5.34009 43.476 5.58009 43.716L8.25609 46.392C8.37609 46.512 8.53209 46.572 8.68809 46.572Z" fill="#FF9B21"/>
<path d="M13.5361 9.00005H19.2721C19.6081 9.00005 19.8721 8.73605 19.8721 8.40005C19.8721 8.06405 19.6081 7.80005 19.2721 7.80005H13.5361C13.2001 7.80005 12.9361 8.06405 12.9361 8.40005C12.9361 8.73605 13.2001 9.00005 13.5361 9.00005Z" fill="#FF9B21"/>
</g>
<defs>
<clipPath id="clip0_116_2272">
<rect width="54" height="54" fill="white" transform="matrix(-1 0 0 1 54 0)"/>
</clipPath>
</defs>
</svg>
