<svg width="66" height="66" viewBox="0 0 66 66" fill="none" xmlns="http://www.w3.org/2000/svg">
<path d="M42.0594 48.9573C41.9292 48.6931 41.6598 48.5268 41.3659 48.5268H29.2732C29.0064 48.5268 28.7576 48.6647 28.6158 48.8916C28.4753 49.1185 28.4611 49.4021 28.5797 49.6418L33.3956 59.3897C33.4962 59.5934 33.6818 59.7429 33.9022 59.7971C34.1226 59.8525 34.356 59.8074 34.5403 59.6746L38.6524 56.7214L45.8828 59.7597C45.9794 59.8009 46.0813 59.8203 46.1818 59.8203C46.3907 59.8203 46.5956 59.7352 46.7451 59.5766C46.9669 59.342 47.0184 58.994 46.8753 58.7039L42.0594 48.9573ZM38.8509 55.1294C38.6034 55.025 38.3185 55.0572 38.1007 55.2145L34.3779 57.888L30.5171 50.0737H40.8851L44.5692 57.5322L38.8509 55.1294ZM63.9864 38.195L63.9851 38.1911L48.3835 6.61036C48.2533 6.3461 47.9839 6.17981 47.69 6.17981H18.3071C18.0132 6.17981 17.7438 6.34739 17.6136 6.61036L2.01339 38.1937C1.89221 38.4386 1.90897 38.7299 2.0585 38.9581L4.03721 41.9977H4.0385C4.18159 42.2168 4.42393 42.3496 4.68561 42.3496H31.9261H61.0189C61.2626 42.3496 61.492 42.2349 61.639 42.0389L63.9116 38.9993C64.0869 38.7673 64.1153 38.4554 63.9864 38.195ZM34.3869 37.7631L19.5511 7.72668H27.6206L42.459 37.7644L34.3869 37.7631ZM53.8801 21.2283L49.6107 19.4352C49.3632 19.3308 49.0783 19.3631 48.8605 19.5203L45.9859 21.5854L42.78 15.095L45.5102 13.1343L51.0248 15.4507L53.8801 21.2283ZM44.0858 21.2283L39.8164 19.4352C39.5689 19.3308 39.284 19.3631 39.0662 19.5203L36.1916 21.5854L32.9857 15.095L35.7159 13.133L41.2305 15.4495L44.0858 21.2283ZM39.6166 21.0285L45.1312 23.345L47.9865 29.1238L43.7171 27.3307C43.4696 27.2263 43.1848 27.2586 42.9669 27.4158L40.0923 29.4796L36.8864 22.9892L39.6166 21.0285ZM43.5173 28.9253L49.0319 31.2418L51.8872 37.0206L47.6178 35.2275C47.3703 35.1231 47.0855 35.1554 46.8676 35.3126L43.993 37.3764L40.7858 30.886L43.5173 28.9253ZM50.5814 30.886L53.3116 28.9253L58.8262 31.2418L61.6802 37.0206L57.4121 35.2275C57.1646 35.1231 56.8798 35.1554 56.6619 35.3126L53.7873 37.3777L50.5814 30.886ZM53.5114 27.3307C53.2639 27.2263 52.979 27.2586 52.7612 27.4158L49.8866 29.4809L46.6807 22.9905L49.4109 21.0298L54.9255 23.3463L57.7795 29.1251L53.5114 27.3307ZM35.9157 11.5397C35.6682 11.4353 35.3833 11.4675 35.1655 11.6248L32.2909 13.6899L29.3454 7.72668H37.4149L40.1851 13.3328L35.9157 11.5397ZM47.4167 36.8208L49.6597 37.7631H46.1058L47.4167 36.8208ZM57.2123 36.8208L59.4553 37.7631H55.9001L57.2123 36.8208ZM49.9794 13.3328L45.71 11.5397C45.4625 11.4353 45.1776 11.4675 44.9598 11.6248L42.0852 13.6886L39.1397 7.7254H47.2092L49.9794 13.3328ZM18.3071 8.69864L33.0179 38.4837L32.0215 40.0125L19.0007 13.4643C18.8705 13.1988 18.601 13.0312 18.3058 13.0312C18.0107 13.0312 17.7412 13.1988 17.611 13.4643L4.59151 40.0138L3.59635 38.485L18.3071 8.69864ZM14.2492 23.8348H22.3651L26.1459 31.5447H10.4671L14.2492 23.8348ZM15.0071 22.2879L18.3071 15.5603L21.6058 22.2879H15.0071ZM5.92698 40.8027L9.70909 33.0929H26.9052L30.686 40.8027H5.92698ZM60.6322 40.8027H33.3531L34.325 39.31H61.7485L60.6322 40.8027Z" fill="#FF9B21"/>
</svg>
