<svg width="64" height="64" viewBox="0 0 64 64" fill="none" xmlns="http://www.w3.org/2000/svg">
<path d="M48.4912 18.6875L46.0812 21.0938L46.4424 21.455L48.8487 19.045L48.4912 18.6875ZM49.7062 17.43L50.2524 17.9763C50.7624 18.49 50.8374 19.28 50.4549 19.8725L54.8137 24.2313C56.6774 20.2163 55.1787 15.4613 51.3274 13.215C47.2449 10.8588 42.0337 12.2375 39.6349 16.3475V16.3513C37.2787 20.4338 38.6574 25.645 42.7712 28.0438C45.5987 29.6775 49.1524 29.5675 51.8949 27.6863L47.2674 23.0588C46.6762 23.445 45.8824 23.37 45.3712 22.86L44.8249 22.3138L43.4787 23.66C42.8974 24.2413 41.9587 24.23 41.3887 23.66L39.5174 21.7888C38.9437 21.215 38.9437 20.2725 39.5174 19.6988L45.4874 13.7313C45.6749 13.5438 45.9449 13.4438 46.2274 13.4838L50.9399 14.1675C51.7262 14.26 51.9787 15.16 51.4824 15.6563L49.7062 17.43ZM49.2387 21.1325L48.5262 21.845L53.2312 26.5475L53.8837 25.7788L49.2387 21.1325ZM46.4149 15.275L40.9474 20.7425L42.4324 22.2313L49.0124 15.6513L46.4149 15.275ZM55.7724 26.1038C55.3399 26.855 54.5149 27.7863 53.8524 28.3675C50.5112 31.305 45.7024 31.7513 41.8937 29.5513V29.5475C36.9612 26.6988 35.2749 20.4063 38.1237 15.4738C40.9724 10.5413 47.2687 8.85502 52.2012 11.7038C57.1299 14.5525 58.8199 20.8488 55.9712 25.7813C55.9074 25.8913 55.8399 25.9975 55.7724 26.1038ZM43.7787 8.43252C37.0424 10.2363 33.0462 17.1563 34.8537 23.895C35.7462 27.2363 37.8837 29.8975 40.7362 31.5625V31.5588C46.7599 35.0388 54.4449 33.005 57.9849 26.9388H57.9812C61.4637 20.905 59.4199 13.2225 53.3612 9.69002C50.5599 8.07877 47.1487 7.53002 43.7787 8.43252ZM34.6012 13.44C38.5699 6.56627 47.3574 4.21377 54.2349 8.18127H54.2312C61.1087 12.1538 63.4612 20.9375 59.4924 27.815L59.4887 27.8113C57.7949 30.7488 55.0699 33.0875 51.6549 34.2388L59.2024 43.5613C59.6737 44.1388 59.2412 44.9825 58.5262 44.9825V44.9863H56.7374V57.0475C56.7374 57.5288 56.3474 57.9225 55.8624 57.9225H37.1174L9.24244 57.8763C8.75744 57.8763 8.36744 57.4825 8.36744 57.0013V45.5775L4.25619 45.375C3.52619 45.34 3.16869 44.4788 3.63619 43.9363L9.08994 37.5975V24.835C9.08994 23.605 10.0924 22.5988 11.3262 22.5988H16.4787C17.7087 22.5988 18.7149 23.605 18.7149 24.835V26.415L20.5924 24.2288C20.7662 24.03 21.0099 23.9238 21.2549 23.9238H33.0574C32.1849 20.2288 32.8299 16.5088 34.6012 13.44ZM49.8087 34.7313C46.2899 35.4225 42.7824 34.76 39.8587 33.0725V33.0688C37.0487 31.4463 34.7887 28.88 33.5874 25.67H23.0999L37.5249 43.2338H56.6974L49.8087 34.7313ZM19.9287 38.4088H27.2774C28.3187 38.4088 29.1662 39.255 29.1662 40.2975V46.3988C29.1662 47.4375 28.3199 48.2875 27.2774 48.2875H19.9287C18.8874 48.2875 18.0362 47.4375 18.0362 46.3988V40.2975C18.0362 39.2563 18.8862 38.4088 19.9287 38.4088ZM27.2774 40.16H19.9287C19.8512 40.16 19.7874 40.2238 19.7874 40.2988V46.4C19.7874 46.475 19.8512 46.5388 19.9287 46.5388H27.2774C27.3524 46.5388 27.4187 46.475 27.4187 46.4V40.2988C27.4187 40.2238 27.3512 40.16 27.2774 40.16ZM24.4387 30.0475L11.7499 45.3938C11.5587 45.6313 11.2687 45.7375 10.9849 45.7088L10.1174 45.6625V56.13L36.2424 56.1725V44.4188L24.4387 30.0475ZM10.8399 35.5638L16.9624 28.4488V24.835C16.9624 24.5688 16.7424 24.35 16.4774 24.35H11.3249C11.0587 24.35 10.8399 24.57 10.8399 24.835V35.5638ZM23.3087 28.6725L21.2399 26.1538L18.5399 29.2925C18.5149 29.325 18.4862 29.3563 18.4587 29.3888L10.6699 38.4388C10.6412 38.4738 10.6162 38.5063 10.5849 38.535L6.12369 43.7225L10.6837 43.9463L23.3087 28.6725ZM54.9862 44.9863H37.9887V56.1725H54.9862V44.9863Z" fill="#FF9B21"/>
</svg>
