<svg width="48" height="48" viewBox="0 0 48 48" fill="none" xmlns="http://www.w3.org/2000/svg">
<g clip-path="url(#clip0_116_2308)">
<path d="M46.5 3.00005H41.9048C41.7385 2.35607 41.3629 1.7856 40.8371 1.37831C40.3113 0.971016 39.6651 0.75 39 0.75C38.3349 0.75 37.6887 0.971016 37.1629 1.37831C36.6371 1.7856 36.2615 2.35607 36.0952 3.00005H26.9048C26.7385 2.35607 26.3629 1.7856 25.8371 1.37831C25.3113 0.971016 24.6651 0.75 24 0.75C23.3349 0.75 22.6887 0.971016 22.1629 1.37831C21.6371 1.7856 21.2615 2.35607 21.0953 3.00005H11.9047C11.7385 2.35607 11.3629 1.7856 10.8371 1.37831C10.3113 0.971016 9.6651 0.75 9 0.75C8.3349 0.75 7.68866 0.971016 7.16286 1.37831C6.63706 1.7856 6.26151 2.35607 6.09525 3.00005H1.5C1.30109 3.00005 1.11032 3.07907 0.96967 3.21972C0.829018 3.36037 0.75 3.55114 0.75 3.75005V46.5C0.75 46.699 0.829018 46.8897 0.96967 47.0304C1.11032 47.171 1.30109 47.25 1.5 47.25H6.75C6.94891 47.25 7.13968 47.171 7.28033 47.0304C7.42098 46.8897 7.5 46.699 7.5 46.5C7.5 46.1022 7.65804 45.7207 7.93934 45.4394C8.22064 45.1581 8.60218 45 9 45C9.39782 45 9.77936 45.1581 10.0607 45.4394C10.342 45.7207 10.5 46.1022 10.5 46.5C10.5 46.699 10.579 46.8897 10.7197 47.0304C10.8603 47.171 11.0511 47.25 11.25 47.25H21.75C21.9489 47.25 22.1397 47.171 22.2803 47.0304C22.421 46.8897 22.5 46.699 22.5 46.5C22.5 46.1022 22.658 45.7207 22.9393 45.4394C23.2206 45.1581 23.6022 45 24 45C24.3978 45 24.7794 45.1581 25.0607 45.4394C25.342 45.7207 25.5 46.1022 25.5 46.5C25.5 46.699 25.579 46.8897 25.7197 47.0304C25.8603 47.171 26.0511 47.25 26.25 47.25H36.75C36.9489 47.25 37.1397 47.171 37.2803 47.0304C37.421 46.8897 37.5 46.699 37.5 46.5C37.5 46.1022 37.658 45.7207 37.9393 45.4394C38.2206 45.1581 38.6022 45 39 45C39.3978 45 39.7794 45.1581 40.0607 45.4394C40.342 45.7207 40.5 46.1022 40.5 46.5C40.5 46.699 40.579 46.8897 40.7197 47.0304C40.8603 47.171 41.0511 47.25 41.25 47.25H46.5C46.6989 47.25 46.8897 47.171 47.0303 47.0304C47.171 46.8897 47.25 46.699 47.25 46.5V3.75005C47.25 3.55114 47.171 3.36037 47.0303 3.21972C46.8897 3.07907 46.6989 3.00005 46.5 3.00005ZM6 45.75H2.25V32.25H6V45.75ZM6 30.75H2.25V17.25H6V30.75ZM6 15.75H2.25V4.50005H6V15.75ZM10.5 43.908C10.0453 43.6409 9.52742 43.5 9 43.5C8.47258 43.5 7.95473 43.6409 7.5 43.908V31.5C7.5 31.1022 7.65804 30.7207 7.93934 30.4394C8.22064 30.1581 8.60218 30 9 30C9.39782 30 9.77936 30.1581 10.0607 30.4394C10.342 30.7207 10.5 31.1022 10.5 31.5V43.908ZM10.5 28.908C10.0453 28.6409 9.52742 28.5 9 28.5C8.47258 28.5 7.95473 28.6409 7.5 28.908V16.5C7.5 16.1022 7.65804 15.7207 7.93934 15.4394C8.22064 15.1581 8.60218 15 9 15C9.39782 15 9.77936 15.1581 10.0607 15.4394C10.342 15.7207 10.5 16.1022 10.5 16.5V28.908ZM10.5 13.908C10.0453 13.6409 9.52742 13.5 9 13.5C8.47258 13.5 7.95473 13.6409 7.5 13.908V3.75005C7.5 3.35222 7.65804 2.97069 7.93934 2.68939C8.22064 2.40808 8.60218 2.25005 9 2.25005C9.39782 2.25005 9.77936 2.40808 10.0607 2.68939C10.342 2.97069 10.5 3.35222 10.5 3.75005V13.908ZM21 45.75H12V32.25H21V45.75ZM21 30.75H12V17.25H21V30.75ZM21 15.75H12V4.50005H21V15.75ZM25.5 43.908C25.0453 43.6409 24.5274 43.5 24 43.5C23.4726 43.5 22.9547 43.6409 22.5 43.908V31.5C22.5 31.1022 22.658 30.7207 22.9393 30.4394C23.2206 30.1581 23.6022 30 24 30C24.3978 30 24.7794 30.1581 25.0607 30.4394C25.342 30.7207 25.5 31.1022 25.5 31.5V43.908ZM25.5 28.908C25.0453 28.6409 24.5274 28.5 24 28.5C23.4726 28.5 22.9547 28.6409 22.5 28.908V16.5C22.5 16.1022 22.658 15.7207 22.9393 15.4394C23.2206 15.1581 23.6022 15 24 15C24.3978 15 24.7794 15.1581 25.0607 15.4394C25.342 15.7207 25.5 16.1022 25.5 16.5V28.908ZM25.5 13.908C25.0453 13.6409 24.5274 13.5 24 13.5C23.4726 13.5 22.9547 13.6409 22.5 13.908V3.75005C22.5 3.35222 22.658 2.97069 22.9393 2.68939C23.2206 2.40808 23.6022 2.25005 24 2.25005C24.3978 2.25005 24.7794 2.40808 25.0607 2.68939C25.342 2.97069 25.5 3.35222 25.5 3.75005V13.908ZM36 45.75H27V32.25H36V45.75ZM36 30.75H27V17.25H36V30.75ZM36 15.75H27V4.50005H36V15.75ZM40.5 43.908C40.0453 43.6409 39.5274 43.5 39 43.5C38.4726 43.5 37.9547 43.6409 37.5 43.908V31.5C37.5 31.1022 37.658 30.7207 37.9393 30.4394C38.2206 30.1581 38.6022 30 39 30C39.3978 30 39.7794 30.1581 40.0607 30.4394C40.342 30.7207 40.5 31.1022 40.5 31.5V43.908ZM40.5 28.908C40.0453 28.6409 39.5274 28.5 39 28.5C38.4726 28.5 37.9547 28.6409 37.5 28.908V16.5C37.5 16.1022 37.658 15.7207 37.9393 15.4394C38.2206 15.1581 38.6022 15 39 15C39.3978 15 39.7794 15.1581 40.0607 15.4394C40.342 15.7207 40.5 16.1022 40.5 16.5V28.908ZM40.5 13.908C40.0453 13.6409 39.5274 13.5 39 13.5C38.4726 13.5 37.9547 13.6409 37.5 13.908V3.75005C37.5 3.35222 37.658 2.97069 37.9393 2.68939C38.2206 2.40808 38.6022 2.25005 39 2.25005C39.3978 2.25005 39.7794 2.40808 40.0607 2.68939C40.342 2.97069 40.5 3.35222 40.5 3.75005V13.908ZM45.75 45.75H42V32.25H45.75V45.75ZM45.75 30.75H42V17.25H45.75V30.75ZM45.75 15.75H42V4.50005H45.75V15.75Z" fill="#FF9B21"/>
</g>
<defs>
<clipPath id="clip0_116_2308">
<rect width="48" height="48" fill="white"/>
</clipPath>
</defs>
</svg>
