<svg width="56" height="56" viewBox="0 0 56 56" fill="none" xmlns="http://www.w3.org/2000/svg">
<path d="M34.2833 15.2024C34.2317 15.0865 34.2021 14.9593 34.2021 14.8244C34.2021 14.3069 34.626 13.8836 35.1434 13.8836C35.6704 13.8836 36.0842 14.3069 36.0842 14.8244C36.0842 15.3418 35.6698 15.7657 35.1434 15.7657C34.7598 15.7657 34.4294 15.5328 34.2833 15.2024ZM41.967 20.4709L38.5163 25.1765H49.6457C50.166 25.1765 50.5871 25.5977 50.5871 26.1179C50.5871 26.6381 50.166 27.0587 49.6457 27.0587H43.0573L44.5632 28.1882C44.7726 28.345 44.9076 28.5825 44.9345 28.8423C44.9619 29.1033 44.879 29.3637 44.7077 29.5602L41.9553 32.7052H49.6452C50.1654 32.7052 50.5865 33.1257 50.5865 33.646C50.5865 34.1662 50.1654 34.5873 49.6452 34.5873H40.3083L38.6989 36.4264L39.0175 36.745C39.3854 37.1129 39.3854 37.7082 39.0175 38.0761C38.8338 38.2598 38.593 38.3517 38.3522 38.3517C38.1114 38.3517 37.8706 38.2598 37.6869 38.0761L36.7461 37.1348C36.3961 36.7848 36.3765 36.222 36.703 35.8501L37.8079 34.5873H20.4714C20.2855 34.5873 20.113 34.5313 19.9674 34.4384L14.5304 41.1752H49.6463C50.1665 41.1752 50.5877 41.5957 50.5877 42.116C50.5877 42.6362 50.1665 43.0573 49.6463 43.0573H32.0942L31.6826 43.6381L33.3475 45.1921C33.7272 45.5471 33.7473 46.1424 33.3934 46.5232C33.2081 46.722 32.9572 46.8217 32.7052 46.8217C32.4756 46.8217 32.2449 46.7382 32.0629 46.5691L30.5839 45.1893L29.7086 46.4252C29.5249 46.6845 29.2343 46.8222 28.9392 46.8222C28.7505 46.8222 28.5617 46.7662 28.396 46.6492C27.9721 46.3485 27.8713 45.7616 28.172 45.3365L29.7865 43.0573H13.0105L8.45269 48.7038H49.6457H49.6642C50.1727 48.7133 50.5871 49.1367 50.5871 49.6452C50.5871 50.1626 50.1632 50.586 49.6457 50.586H6.48653C6.11973 50.586 5.79997 50.3793 5.63981 50.0495C5.47909 49.7292 5.52669 49.3344 5.75181 49.0521L31.84 16.7245C32.1508 16.3386 32.7713 16.2731 33.1672 16.5839C33.1677 16.5845 33.1677 16.5845 33.1677 16.5845C33.3548 16.7441 33.4774 16.9602 33.5054 17.2145C33.534 17.4681 33.4679 17.7129 33.3083 17.9111L32.7617 18.5881H41.0128L43.0831 15.7652H38.9173C38.3909 15.7652 37.9759 15.3413 37.9759 14.8238C37.9759 14.3064 38.3903 13.883 38.9173 13.883H49.6463C50.1637 13.883 50.5877 14.3064 50.5877 14.8238C50.5877 15.3413 50.1637 15.7652 49.6463 15.7652H45.4183L43.3474 18.5881H49.6463C50.1665 18.5881 50.5877 19.0093 50.5877 19.5295C50.5877 20.0497 50.1665 20.4703 49.6463 20.4703L41.967 20.4709ZM37.1359 27.0587L35.3473 29.4981C35.1625 29.7489 34.8769 29.8822 34.5873 29.8822C34.3947 29.8822 34.1998 29.8234 34.0313 29.7002C33.6118 29.3928 33.5222 28.8031 33.8291 28.3842L34.8007 27.0587H26.1179C26.0569 27.0587 25.9969 27.052 25.9387 27.0408L21.3663 32.7057H39.4543L42.6222 29.0853L39.9213 27.0587H37.1359ZM39.6318 20.4709H31.2419L27.4434 25.1765H36.1811L39.6318 20.4709ZM5.41357 16.2361C5.41357 10.2688 10.2688 5.41357 16.2361 5.41357C22.2035 5.41357 27.0587 10.2688 27.0587 16.2361C27.0587 17.8904 26.6796 19.4545 26.0132 20.8573C26.0126 20.8584 26.0126 20.8589 26.0121 20.8601C26.0121 20.8612 26.0109 20.8617 26.0109 20.8623C25.7505 21.4094 25.4509 21.9341 25.106 22.4258C25.0785 22.465 25.0511 22.5042 25.0225 22.5429C24.8792 22.7439 24.7285 22.9393 24.5729 23.1297C24.5051 23.2115 24.434 23.291 24.364 23.3705C24.2682 23.4797 24.1697 23.5861 24.07 23.6914C24.0089 23.7564 23.9524 23.8258 23.8891 23.8891C23.823 23.9552 23.7502 24.0145 23.6819 24.0789C23.5856 24.1702 23.4887 24.2604 23.3885 24.3483C23.3045 24.4222 23.221 24.4961 23.1348 24.5678C22.9545 24.7168 22.7691 24.8601 22.5787 24.9973C22.5333 25.0304 22.488 25.0623 22.4421 25.0948C20.6837 26.3301 18.5439 27.0587 16.2356 27.0587C10.2688 27.0587 5.41357 22.2035 5.41357 16.2361ZM7.29573 16.2361C7.29573 21.1658 11.3065 25.1765 16.2361 25.1765C17.1428 25.1765 18.0181 25.0399 18.8435 24.7879L16.6696 22.6134C16.4445 22.6364 16.2182 22.6493 15.9914 22.6493C14.2739 22.6493 12.5569 21.9957 11.2499 20.6881C9.48365 18.9208 8.96621 16.3756 9.86557 13.8808C9.97421 13.5773 10.2313 13.3516 10.546 13.2816C10.8601 13.2088 11.1883 13.3068 11.4162 13.5341L14.5097 16.6276L16.328 16.2535L16.748 14.5393L13.5801 11.3714C13.3516 11.1435 13.2564 10.8153 13.3269 10.5012C13.3969 10.1865 13.6232 9.93053 13.9261 9.82133C16.4243 8.92141 18.9678 9.43997 20.7329 11.2051C21.989 12.4606 22.6829 14.1406 22.6868 15.9349C22.6873 16.165 22.6761 16.3935 22.6537 16.6197L24.8075 18.7735C25.0461 17.9688 25.1765 17.1176 25.1765 16.2361C25.1765 11.3065 21.1658 7.29573 16.2361 7.29573C11.3065 7.29573 7.29573 11.3065 7.29573 16.2361ZM23.3739 21.6133C23.6046 21.3041 23.818 20.9793 24.0095 20.6377L22.0898 18.7175C21.7622 19.4421 21.3103 20.1113 20.7329 20.6881C20.1466 21.2739 19.4757 21.7213 18.7617 22.0445L20.6943 23.9776C21.0202 23.7911 21.331 23.585 21.6267 23.3633C21.6905 23.3151 21.7521 23.2653 21.8143 23.216C21.8697 23.1717 21.9241 23.1269 21.9789 23.0816C22.1789 22.9147 22.3743 22.7428 22.558 22.5591C22.6549 22.4622 22.7456 22.3603 22.838 22.2589C22.8436 22.2528 22.8492 22.2472 22.8548 22.241C22.9326 22.1553 23.0082 22.0674 23.0827 21.9784C23.1348 21.9157 23.1857 21.8529 23.2361 21.7891C23.2821 21.7297 23.3297 21.6726 23.3739 21.6133ZM16.7861 20.6977C17.7448 20.5386 18.6643 20.0951 19.4024 19.357C20.1181 18.6419 20.5745 17.7347 20.7357 16.7474C20.7789 16.4825 20.8057 16.2132 20.8046 15.9388C20.8041 15.7949 20.7957 15.6526 20.7833 15.5115C20.6837 14.3814 20.2037 13.337 19.4024 12.5351C18.5165 11.6486 17.3858 11.2264 16.1409 11.2695L18.4537 13.5829C18.6861 13.8153 18.7813 14.1524 18.7029 14.4721L18.0147 17.2777C17.9273 17.6305 17.6462 17.9016 17.2906 17.9755L14.3937 18.5719C14.0841 18.6352 13.7621 18.5394 13.5381 18.3154L11.316 16.0933C11.2628 17.3276 11.6945 18.4689 12.5816 19.3559C13.4093 20.1836 14.4649 20.6456 15.5485 20.7447C15.9606 20.7845 16.3767 20.7654 16.7861 20.6977Z" fill="#FF9B21"/>
</svg>
