<svg width="38" height="38" viewBox="0 0 38 38" fill="none" xmlns="http://www.w3.org/2000/svg">
<g clip-path="url(#clip0_125_3667)">
<path d="M19 0C15.2222 0.00501134 11.6006 1.50796 8.92926 4.17926C6.25796 6.85057 4.75501 10.4722 4.75 14.25C4.75 24.4803 18.0262 37.2934 18.5903 37.8338C18.7 37.9404 18.847 38 19 38C19.153 38 19.3 37.9404 19.4097 37.8338C19.9737 37.2934 33.25 24.4803 33.25 14.25C33.245 10.4722 31.742 6.85057 29.0707 4.17926C26.3994 1.50796 22.7778 0.00501134 19 0ZM19 20.7812C17.7082 20.7812 16.4455 20.3982 15.3714 19.6805C14.2974 18.9629 13.4602 17.9428 12.9659 16.7494C12.4716 15.556 12.3422 14.2428 12.5942 12.9758C12.8463 11.7089 13.4683 10.5451 14.3817 9.63171C15.2951 8.7183 16.4589 8.09626 17.7258 7.84425C18.9928 7.59224 20.306 7.72158 21.4994 8.21591C22.6928 8.71025 23.7129 9.54737 24.4305 10.6214C25.1482 11.6955 25.5312 12.9582 25.5312 14.25C25.5302 15.9819 24.8418 17.6425 23.6171 18.8671C22.3925 20.0918 20.7319 20.7802 19 20.7812Z" fill="#FF9B21"/>
</g>
<defs>
<clipPath id="clip0_125_3667">
<rect width="38" height="38" fill="white"/>
</clipPath>
</defs>
</svg>
