<svg width="35" height="35" viewBox="0 0 35 35" fill="none" xmlns="http://www.w3.org/2000/svg">
<path d="M26.6093 23.1532C25.4658 22.0243 24.0383 22.0243 22.9022 23.1532C22.0355 24.0126 21.1688 24.872 20.3166 25.746C20.0836 25.9864 19.8869 26.0373 19.6029 25.8771C19.0421 25.5712 18.4449 25.3236 17.9059 24.9886C15.3932 23.4081 13.2884 21.3761 11.4239 19.0892C10.4989 17.953 9.67593 16.7367 9.10056 15.3675C8.98403 15.0907 9.00588 14.9087 9.23166 14.6829C10.0984 13.8453 10.9432 12.9859 11.7953 12.1265C12.9825 10.9321 12.9825 9.53369 11.788 8.33197C11.1107 7.64735 10.4334 6.9773 9.75604 6.29268C9.05686 5.59349 8.36496 4.88703 7.65849 4.19513C6.51503 3.0808 5.08753 3.0808 3.95136 4.20241C3.07738 5.06182 2.23981 5.94309 1.35127 6.78793C0.528269 7.56723 0.113129 8.52133 0.0257308 9.63565C-0.112649 11.4492 0.331624 13.1607 0.957976 14.8286C2.23981 18.2808 4.1917 21.347 6.55873 24.1583C9.75604 27.9601 13.5724 30.9681 18.037 33.1384C20.0472 34.1144 22.1301 34.8646 24.3952 34.9884C25.9538 35.0758 27.3085 34.6825 28.3937 33.4662C29.1366 32.6359 29.9741 31.8785 30.7607 31.0846C31.926 29.9047 31.9333 28.4772 30.7753 27.3119C29.3915 25.9208 28.0004 24.537 26.6093 23.1532Z" fill="#FF9B21"/>
<path d="M25.2182 17.3485L27.9057 16.8896C27.4833 14.4207 26.318 12.1847 24.5481 10.4076C22.6764 8.53585 20.3093 7.35598 17.702 6.99182L17.3232 9.69388C19.3407 9.97792 21.176 10.8883 22.6254 12.3377C23.9946 13.7069 24.8905 15.4403 25.2182 17.3485Z" fill="#FF9B21"/>
<path d="M29.4206 5.66631C26.318 2.56368 22.3924 0.604503 18.0589 0L17.6802 2.70206C21.4237 3.22644 24.8177 4.92342 27.4979 7.59635C30.0397 10.1382 31.7076 13.35 32.3121 16.8824L34.9996 16.4235C34.2931 12.3304 32.363 8.61599 29.4206 5.66631Z" fill="#FF9B21"/>
</svg>
