<svg width="272" height="99" viewBox="0 0 272 99" fill="none" xmlns="http://www.w3.org/2000/svg">
<path d="M110.995 57.0487C112.601 57.0487 114.02 56.8331 115.252 56.4286C116.483 56.0242 117.501 55.5389 118.357 55.0267C119.321 54.4605 120.178 53.7865 120.901 53.0046L120.553 58.909C119.696 59.1786 118.786 59.3943 117.795 59.5831C116.912 59.7448 115.894 59.9066 114.743 60.0414C113.592 60.1762 112.334 60.2571 110.968 60.2571C109.175 60.2571 107.381 59.9605 105.561 59.3943C103.74 58.8282 102.08 57.9115 100.608 56.6443C99.1086 55.3772 97.9038 53.7595 96.9668 51.7644C96.0298 49.7693 95.5747 47.3429 95.5747 44.512C95.5747 41.8159 96.0298 39.4973 96.9401 37.5291C97.8503 35.561 99.0283 33.9164 100.447 32.6492C101.893 31.3551 103.472 30.4115 105.186 29.7644C106.926 29.1443 108.586 28.8208 110.219 28.8208C111.584 28.8208 112.789 28.9017 113.806 29.0365C114.85 29.1713 115.707 29.3331 116.43 29.4948C117.26 29.6835 117.956 29.9262 118.572 30.1688V36.1272C117.983 35.3723 117.287 34.7252 116.483 34.1051C115.814 33.5929 114.984 33.1076 114.02 32.7032C113.057 32.2718 111.932 32.0561 110.647 32.0561C109.576 32.0561 108.479 32.2718 107.408 32.7032C106.337 33.1345 105.373 33.8355 104.516 34.8061C103.66 35.7767 102.964 37.0438 102.428 38.6345C101.893 40.2252 101.625 42.1664 101.625 44.485C101.625 46.7497 101.893 48.6639 102.428 50.2277C102.964 51.7914 103.687 53.0855 104.57 54.0831C105.453 55.0806 106.444 55.8085 107.568 56.2669C108.666 56.8061 109.817 57.0487 110.995 57.0487Z" fill="white"/>
<path d="M142.051 55.6202C142.051 56.402 142.131 57.0491 142.318 57.5883C142.506 58.1275 142.72 58.5858 142.934 58.9094C143.202 59.3138 143.496 59.6373 143.817 59.853H140.123C139.4 59.853 138.784 59.6643 138.195 59.2599C137.633 58.8554 137.232 58.3432 136.991 57.7231C136.723 57.9388 136.402 58.2084 135.973 58.505C135.545 58.8015 135.063 59.0711 134.474 59.3407C133.912 59.6104 133.269 59.853 132.573 60.0148C131.877 60.2035 131.128 60.2844 130.351 60.2844C129.495 60.2844 128.691 60.1765 127.942 59.9608C127.192 59.7452 126.523 59.3947 125.934 58.9363C125.345 58.478 124.89 57.8849 124.542 57.1569C124.194 56.4559 124.033 55.5932 124.033 54.5956C124.033 53.2206 124.408 52.0883 125.131 51.1986C125.854 50.3089 126.817 49.5809 127.995 49.0417C129.2 48.5025 130.539 48.152 132.038 47.9363C133.537 47.7206 135.09 47.6128 136.669 47.6128V45.7795C136.669 44.701 136.375 43.8113 135.786 43.1643C135.197 42.5172 134.287 42.1667 133.002 42.1667C132.225 42.1667 131.502 42.3015 130.78 42.5442C130.057 42.7868 129.441 43.0564 128.852 43.38C128.21 43.7304 127.594 44.1079 127.032 44.5393V40.4412C127.647 40.1716 128.343 39.929 129.066 39.7133C129.709 39.5515 130.458 39.3898 131.288 39.228C132.118 39.0662 133.028 38.9854 134.046 38.9854C135.143 38.9854 136.188 39.201 137.125 39.6054C138.088 40.0099 138.918 40.603 139.641 41.3309C140.364 42.0589 140.926 42.8947 141.354 43.8653C141.756 44.8358 141.97 45.8603 141.97 46.9657V55.6202H142.051ZM129.414 54.2452C129.414 55.1618 129.655 55.9437 130.137 56.6177C130.619 57.2917 131.449 57.6153 132.654 57.6153C133.189 57.6153 133.698 57.5613 134.153 57.4265C134.608 57.2917 135.01 57.13 135.358 56.9682C135.706 56.7795 135.973 56.5907 136.214 56.402C136.428 56.2133 136.616 56.0785 136.777 55.9437V49.3383C136.268 49.3653 135.599 49.4461 134.769 49.5809C133.939 49.7157 133.136 49.9584 132.359 50.2819C131.583 50.6324 130.887 51.1177 130.325 51.7378C129.709 52.4118 129.414 53.2206 129.414 54.2452Z" fill="white"/>
<path d="M154.178 57.5882C154.365 58.1274 154.579 58.5857 154.793 58.9093C155.061 59.3137 155.356 59.6372 155.677 59.8529H146.815C147.137 59.6372 147.404 59.3137 147.672 58.9093C147.886 58.5588 148.1 58.1274 148.288 57.5882C148.475 57.049 148.556 56.3749 148.556 55.62V33.5392C148.556 32.7573 148.475 32.1102 148.288 31.571C148.1 31.0318 147.886 30.5735 147.672 30.2499C147.404 29.8455 147.137 29.522 146.815 29.2524L153.883 28.3896V55.62C153.883 56.4019 153.99 57.049 154.178 57.5882Z" fill="white"/>
<path d="M165.717 55.62C165.717 56.4018 165.797 57.0489 165.984 57.5881C166.145 58.1273 166.359 58.5857 166.573 58.9092C166.841 59.3136 167.136 59.6371 167.457 59.8528H158.649C158.97 59.6371 159.238 59.3136 159.506 58.9092C159.72 58.5587 159.934 58.1273 160.121 57.5881C160.309 57.0489 160.389 56.3749 160.389 55.62V44.0808C160.389 43.2989 160.309 42.6518 160.121 42.1396C159.934 41.6004 159.72 41.169 159.506 40.8455C159.238 40.4411 158.97 40.1175 158.649 39.8479L165.717 38.9852V55.62ZM162.504 36.1273C161.621 36.1273 160.871 35.8038 160.255 35.1837C159.639 34.5636 159.318 33.7817 159.318 32.8651C159.318 31.9754 159.639 31.2205 160.255 30.6004C160.871 29.9803 161.621 29.6567 162.504 29.6567C163.414 29.6567 164.191 29.9803 164.806 30.6004C165.422 31.2205 165.743 31.9754 165.743 32.8651C165.743 33.7817 165.422 34.5636 164.806 35.1837C164.164 35.8038 163.388 36.1273 162.504 36.1273Z" fill="white"/>
<path d="M176.398 35.8311C176.398 36.8016 176.8 37.6374 177.576 38.3384C178.353 39.0394 179.317 39.7134 180.495 40.3335C181.646 40.9536 182.931 41.6007 184.296 42.2477C185.661 42.8948 186.92 43.6497 188.098 44.5394C189.249 45.4291 190.239 46.4536 191.016 47.6399C191.792 48.8261 192.194 50.282 192.194 51.9806C192.194 54.6497 191.123 56.6987 189.035 58.1276C186.92 59.5835 183.921 60.2845 180.066 60.2845C178.728 60.2845 177.523 60.2036 176.425 60.0688C175.328 59.934 174.391 59.7722 173.587 59.6105C172.65 59.4217 171.821 59.1791 171.071 58.9364L170.696 52.6815C171.472 53.4904 172.329 54.1913 173.347 54.8384C174.203 55.3776 175.221 55.8629 176.452 56.2943C177.684 56.7257 179.049 56.9413 180.575 56.9413C181.378 56.9413 182.128 56.8605 182.824 56.6717C183.52 56.51 184.162 56.2404 184.698 55.8899C185.233 55.5394 185.661 55.108 185.983 54.5958C186.304 54.0835 186.438 53.4904 186.438 52.7894C186.438 51.711 186.036 50.7673 185.26 49.9585C184.484 49.1497 183.52 48.4217 182.342 47.7208C181.191 47.0198 179.906 46.3458 178.54 45.6717C177.175 44.9977 175.917 44.2428 174.739 43.407C173.587 42.5712 172.597 41.5737 171.821 40.4683C171.044 39.3629 170.643 38.0149 170.643 36.4781C170.643 35.2649 170.91 34.2134 171.419 33.2967C171.954 32.3801 172.677 31.5713 173.614 30.9512C174.551 30.3041 175.676 29.8188 176.961 29.4683C178.246 29.1178 179.665 28.9561 181.191 28.9561C182.502 28.9561 183.707 29.0369 184.858 29.1717C185.983 29.3065 186.973 29.4683 187.803 29.6301C188.767 29.8188 189.65 30.0614 190.454 30.3041V36.2624C189.784 35.5075 188.981 34.8605 188.071 34.2404C187.295 33.7281 186.384 33.2428 185.313 32.8384C184.243 32.407 183.038 32.1913 181.726 32.1913C180.2 32.1913 178.915 32.5149 177.924 33.1889C176.907 33.809 176.398 34.6987 176.398 35.8311Z" fill="white"/>
<path d="M217.305 39.9828C217.091 40.3333 216.877 40.7647 216.716 41.2769C216.556 41.8161 216.449 42.4632 216.449 43.2181V55.6201C216.449 56.4019 216.529 57.049 216.716 57.5882C216.877 58.1274 217.091 58.5857 217.305 58.9093C217.573 59.3137 217.867 59.6372 218.189 59.8529H213.584C213.075 59.8529 212.674 59.745 212.352 59.5563C212.031 59.3676 211.79 59.125 211.603 58.8553C211.415 58.5857 211.282 58.3161 211.228 58.0465C211.148 57.7769 211.121 57.5612 211.121 57.4264C210.8 57.75 210.452 58.0735 210.023 58.424C209.622 58.7745 209.14 59.071 208.631 59.3676C208.096 59.6642 207.507 59.8799 206.811 60.0416C206.141 60.2034 205.392 60.3112 204.589 60.3112C202.072 60.3112 200.171 59.5563 198.94 58.0196C197.682 56.4828 197.066 54.2181 197.066 51.1715V43.245C197.066 42.4632 196.986 41.8161 196.798 41.3039C196.611 40.7647 196.397 40.3333 196.182 40.0098C195.915 39.6053 195.647 39.2818 195.326 39.0122H204.134C203.786 39.2818 203.491 39.6053 203.25 40.0098C203.036 40.3602 202.822 40.7916 202.661 41.3039C202.5 41.8431 202.393 42.4901 202.393 43.245V52.0343C202.393 54.0024 202.768 55.4044 203.491 56.2671C204.241 57.1029 205.178 57.5343 206.302 57.5343C207.266 57.5343 208.042 57.3725 208.658 57.022C209.274 56.6715 209.756 56.2671 210.13 55.8088C210.505 55.3504 210.746 54.8651 210.907 54.3799C211.041 53.8946 211.121 53.5171 211.121 53.2205V43.272C211.121 42.4901 211.041 41.8431 210.853 41.3308C210.666 40.7916 210.452 40.3602 210.237 40.0367C209.97 39.6323 209.702 39.3088 209.381 39.0392H218.189C217.867 39.2549 217.573 39.5784 217.305 39.9828Z" fill="white"/>
<path d="M242.551 57.5884C242.712 58.1276 242.926 58.5859 243.14 58.9095C243.408 59.3139 243.702 59.6374 244.024 59.8531H235.216C235.537 59.6374 235.805 59.3139 236.072 58.9095C236.287 58.559 236.501 58.1276 236.688 57.5884C236.876 57.0492 236.956 56.3752 236.956 55.6203V46.831C236.956 44.8899 236.581 43.5688 235.858 42.8408C235.109 42.1399 234.172 41.7624 233.047 41.7624C232.378 41.7624 231.762 41.8972 231.227 42.1938C230.691 42.4904 230.236 42.8139 229.835 43.1913C229.433 43.5688 229.112 43.9462 228.844 44.3237C228.576 44.7011 228.362 44.9708 228.228 45.1864V55.5933C228.228 56.3752 228.309 57.0222 228.496 57.5614C228.657 58.1007 228.871 58.559 229.085 58.8825C229.353 59.2869 229.647 59.6105 229.969 59.8261H221.161C221.482 59.6105 221.75 59.2869 222.017 58.8825C222.232 58.532 222.446 58.1007 222.633 57.5614C222.82 57.0222 222.901 56.3482 222.901 55.5933V44.0541C222.901 43.2722 222.82 42.6252 222.633 42.1129C222.446 41.5737 222.232 41.1423 222.017 40.8188C221.75 40.4144 221.482 40.0908 221.161 39.8212L228.228 38.9585V41.4119C228.898 40.7918 229.754 40.2257 230.798 39.7134C231.843 39.2011 233.074 38.9585 234.493 38.9585C237.009 38.9585 238.937 39.6595 240.276 41.0345C241.614 42.4095 242.283 44.6203 242.283 47.6668V55.5933C242.31 56.4021 242.391 57.0492 242.551 57.5884Z" fill="white"/>
<path d="M99.5103 89.9143V69.7207H107.729C110.406 69.7207 112.495 70.3678 114.02 71.6349C115.546 72.9021 116.296 74.6545 116.296 76.9192C116.296 78.4021 115.948 79.6692 115.252 80.7477C114.556 81.8261 113.592 82.6349 112.307 83.2011C111.049 83.7673 109.523 84.0638 107.729 84.0638H101.545L103.205 82.3653V89.9413H99.5103V89.9143ZM103.232 82.7158L101.572 80.9364H107.595C109.228 80.9364 110.487 80.5859 111.317 79.858C112.146 79.157 112.575 78.1594 112.575 76.8923C112.575 75.5982 112.146 74.6006 111.317 73.9266C110.487 73.2256 109.255 72.8751 107.595 72.8751H101.572L103.232 71.0418V82.7158ZM112.628 89.9143L107.569 82.581H111.557L116.644 89.9143H112.628Z" fill="#FF9B21"/>
<path d="M126.978 90.103C125.425 90.103 124.006 89.7525 122.802 89.0785C121.57 88.4045 120.606 87.4609 119.91 86.2746C119.214 85.0883 118.839 83.7133 118.839 82.2035C118.839 80.6667 119.187 79.2917 119.91 78.1324C120.606 76.9461 121.57 76.0295 122.802 75.3555C124.033 74.6814 125.425 74.3579 126.978 74.3579C128.557 74.3579 129.976 74.6814 131.208 75.3555C132.439 76.0295 133.403 76.9461 134.099 78.1324C134.795 79.3187 135.143 80.6667 135.143 82.2305C135.143 83.7403 134.795 85.1153 134.099 86.3015C133.403 87.4878 132.439 88.4314 131.208 89.1055C129.976 89.7795 128.557 90.103 126.978 90.103ZM126.978 87.0295C127.861 87.0295 128.638 86.8408 129.334 86.4633C130.03 86.0859 130.565 85.5197 130.94 84.7917C131.342 84.0638 131.529 83.201 131.529 82.2305C131.529 81.2329 131.342 80.3702 130.94 79.6422C130.539 78.9143 130.003 78.3751 129.334 77.9707C128.638 77.5932 127.861 77.4045 127.005 77.4045C126.121 77.4045 125.345 77.5932 124.676 77.9707C124.006 78.3481 123.471 78.9143 123.069 79.6422C122.668 80.3702 122.48 81.2329 122.48 82.2305C122.48 83.201 122.668 84.0638 123.069 84.7917C123.471 85.5197 124.006 86.0859 124.676 86.4633C125.345 86.8408 126.121 87.0295 126.978 87.0295Z" fill="#FF9B21"/>
<path d="M145.451 90.103C143.898 90.103 142.479 89.7525 141.274 89.0785C140.043 88.4045 139.079 87.4609 138.383 86.2746C137.687 85.0883 137.312 83.7133 137.312 82.2035C137.312 80.6667 137.66 79.2917 138.383 78.1324C139.079 76.9461 140.043 76.0295 141.274 75.3555C142.506 74.6814 143.898 74.3579 145.451 74.3579C147.03 74.3579 148.449 74.6814 149.681 75.3555C150.912 76.0295 151.876 76.9461 152.572 78.1324C153.268 79.3187 153.616 80.6667 153.616 82.2305C153.616 83.7403 153.268 85.1153 152.572 86.3015C151.876 87.4878 150.912 88.4314 149.681 89.1055C148.449 89.7795 147.03 90.103 145.451 90.103ZM145.451 87.0295C146.334 87.0295 147.11 86.8408 147.806 86.4633C148.503 86.0859 149.038 85.5197 149.413 84.7917C149.814 84.0638 150.002 83.201 150.002 82.2305C150.002 81.2329 149.814 80.3702 149.413 79.6422C149.011 78.9143 148.476 78.3751 147.806 77.9707C147.11 77.5932 146.334 77.4045 145.477 77.4045C144.594 77.4045 143.818 77.5932 143.148 77.9707C142.479 78.3481 141.944 78.9143 141.542 79.6422C141.14 80.3702 140.953 81.2329 140.953 82.2305C140.953 83.201 141.14 84.0638 141.542 84.7917C141.944 85.5197 142.479 86.0859 143.148 86.4633C143.818 86.8408 144.594 87.0295 145.451 87.0295Z" fill="#FF9B21"/>
<path d="M155.035 77.5123V74.6275H165.235V77.5123H155.035ZM157.551 89.9142V73.6569C157.551 72.0392 158.033 70.7451 158.97 69.7745C159.907 68.8039 161.272 68.3187 163.013 68.3187C163.655 68.3187 164.244 68.3995 164.806 68.5074C165.369 68.6422 165.85 68.8579 166.225 69.1544L165.261 71.8775C164.994 71.6618 164.699 71.5 164.351 71.3922C164.003 71.2843 163.655 71.2304 163.28 71.2304C162.531 71.2304 161.969 71.4461 161.594 71.8505C161.219 72.2549 161.032 72.875 161.032 73.7108V75.4363L161.139 77.0539V89.9142H157.551ZM169.465 71.9584C168.795 71.9584 168.26 71.7427 167.805 71.3113C167.376 70.8799 167.162 70.3677 167.162 69.7745C167.162 69.1544 167.376 68.6422 167.805 68.2378C168.233 67.8334 168.795 67.6177 169.465 67.6177C170.134 67.6177 170.669 67.8064 171.124 68.2108C171.553 68.6152 171.767 69.1005 171.767 69.6937C171.767 70.3407 171.553 70.853 171.124 71.2843C170.696 71.7427 170.161 71.9584 169.465 71.9584ZM167.698 89.9142V74.5196H171.285V89.9142H167.698Z" fill="#FF9B21"/>
<path d="M175.97 89.9143V74.5197H179.37V78.6716L178.781 77.4045C179.317 76.4339 180.093 75.679 181.11 75.1398C182.128 74.6006 183.306 74.3579 184.644 74.3579C185.876 74.3579 186.947 74.6006 187.937 75.0859C188.901 75.5711 189.651 76.2991 190.213 77.2966C190.775 78.2942 191.043 79.5613 191.043 81.1251V89.9412H187.455V81.5834C187.455 80.2084 187.134 79.2109 186.491 78.5368C185.849 77.8628 184.965 77.5393 183.814 77.5393C182.984 77.5393 182.235 77.7011 181.592 78.0515C180.95 78.402 180.441 78.9143 180.093 79.5883C179.745 80.2623 179.558 81.1251 179.558 82.1765V89.9682H175.97V89.9143Z" fill="#FF9B21"/>
<path d="M202.099 89.2134C200.654 89.2134 199.342 88.8899 198.164 88.2698C196.986 87.6497 196.076 86.7869 195.38 85.6546C194.71 84.5492 194.362 83.2281 194.362 81.7183C194.362 80.2355 194.71 78.9413 195.38 77.836C196.049 76.7306 196.986 75.8678 198.164 75.2477C199.342 74.6276 200.654 74.3311 202.099 74.3311C203.384 74.3311 204.562 74.6007 205.606 75.1129C206.65 75.6252 207.454 76.434 208.096 77.5394C208.712 78.6448 209.033 80.0467 209.033 81.7453C209.033 83.4438 208.712 84.8727 208.096 85.9781C207.48 87.0835 206.65 87.8923 205.606 88.4315C204.562 88.9438 203.384 89.2134 202.099 89.2134ZM202.554 95.711C201.136 95.711 199.77 95.5222 198.405 95.1448C197.066 94.7673 195.969 94.2281 195.085 93.5271L196.691 90.8041C197.361 91.3703 198.217 91.8016 199.235 92.1521C200.252 92.4757 201.296 92.6644 202.34 92.6644C204.027 92.6644 205.258 92.2869 206.035 91.5051C206.811 90.7232 207.213 89.5639 207.213 88.0002V85.2502L207.507 81.7722L207.4 78.2943V74.5467H210.8V87.6227C210.8 90.3997 210.104 92.4757 208.685 93.7698C207.266 95.0369 205.232 95.711 202.554 95.711ZM202.635 86.1668C203.545 86.1668 204.321 85.9781 205.044 85.6007C205.74 85.2232 206.302 84.711 206.704 84.0369C207.106 83.3629 207.293 82.608 207.293 81.7453C207.293 80.8825 207.106 80.1276 206.704 79.4536C206.302 78.7796 205.767 78.2673 205.044 77.9168C204.348 77.5663 203.545 77.3776 202.635 77.3776C201.725 77.3776 200.921 77.5663 200.225 77.9168C199.502 78.2673 198.967 78.7796 198.565 79.4536C198.164 80.1276 197.976 80.8825 197.976 81.7453C197.976 82.608 198.164 83.3629 198.565 84.0369C198.967 84.711 199.502 85.2232 200.225 85.6007C200.921 85.9781 201.725 86.1668 202.635 86.1668Z" fill="#FF9B21"/>
<path d="M48.5904 46.0488C38.4708 54.9459 28.3243 63.789 18.1778 72.6322C17.8298 72.9287 17.455 73.1983 16.9731 73.5758C16.9196 73.1714 16.866 73.0096 16.866 72.8209C16.866 65.2719 16.8393 57.7229 16.9196 50.1738C16.9196 49.5807 17.4015 48.8528 17.8834 48.4214C24.4959 42.5979 31.1353 36.8013 37.7747 31.0047C38.0156 30.789 38.3101 30.6003 38.8456 30.2498C38.8456 35.9655 38.8456 41.3846 38.8456 47.0733C39.3274 46.7498 39.5952 46.615 39.8093 46.4263C41.5763 44.8895 43.2896 43.3258 45.0833 41.843C45.9133 41.1689 46.2613 40.414 46.2613 39.3086C46.2345 31.2204 46.2881 23.1322 46.2881 15.0439C46.2881 14.7474 46.2078 14.4778 46.1274 14.0464C45.7259 14.343 45.4314 14.5317 45.1637 14.7474C33.6251 24.8037 22.1133 34.8871 10.5747 44.9165C9.79831 45.5905 9.47705 46.2915 9.47705 47.316C9.50382 61.0121 9.53059 74.7081 9.53059 88.4312C9.53059 88.8086 9.61091 89.1591 9.66445 89.7792C10.1999 89.3479 10.5479 89.0782 10.8692 88.7817C23.3983 77.8356 35.9542 66.8895 48.4566 55.9165C48.9385 55.4851 49.34 55.2694 49.7416 55.2694V45.4557C49.3668 45.4827 49.0188 45.6444 48.5904 46.0488Z" fill="white"/>
<path d="M49.2062 69.9634H41.603V77.6202H49.2062V69.9634Z" fill="white"/>
<path d="M49.2062 80.0732H41.603V87.7301H49.2062V80.0732Z" fill="white"/>
<path d="M88.7749 88.9435C89.0693 89.1862 89.3906 89.4019 89.8993 89.8063C89.926 89.1323 89.9796 88.7818 89.9796 88.4313C89.9796 80.3431 90.0064 72.2548 89.9528 64.1666C89.9528 63.4926 89.4709 62.6298 88.9623 62.1715C79.8599 54.1641 70.704 46.2107 61.5749 38.2303C61.2536 37.9337 60.7449 37.5833 60.7449 37.2328C60.6646 34.9681 60.7182 32.7303 60.7182 30.1151C70.5701 38.7156 80.1276 47.0734 90.0064 55.6739C90.0064 52.4926 90.0599 49.7156 89.9796 46.9386C89.9528 46.3186 89.6048 45.5367 89.1497 45.1323C77.5575 34.9411 65.9119 24.8038 54.2662 14.6666C54.0252 14.4509 53.7308 14.2891 53.3292 14.0195C53.3024 14.4239 53.2489 14.6396 53.2489 14.8284C53.2489 23.1323 53.2489 31.4632 53.3292 39.7671C53.3292 40.3602 53.7575 41.1421 54.2394 41.5465C63.3418 49.5538 72.4977 57.5073 81.6001 65.5146C82.0016 65.8651 82.5371 66.2965 82.5638 66.7009C82.6709 68.9117 82.6174 71.1225 82.6174 73.5759C82.1623 73.2254 81.8945 73.0636 81.6804 72.8749C71.4268 63.9509 61.1733 54.9999 50.9465 46.0489C50.4914 45.6445 50.1434 45.4288 49.7686 45.4288V55.2426C50.1434 55.2426 50.5449 55.4583 51.0268 55.8896C63.556 66.9705 76.1654 77.9435 88.7749 88.9435Z" fill="#FF9B21"/>
<path d="M59.2721 69.9634H51.6689V77.6202H59.2721V69.9634Z" fill="white"/>
<path d="M59.2721 80.0732H51.6689V87.7301H59.2721V80.0732Z" fill="white"/>
<path d="M208.926 36.2621C213.156 29.468 222.981 24.4263 233.208 27.4459C243.434 30.4655 249.779 40.1984 249.003 50.4974C247.905 40.4949 243.113 33.2694 233.636 29.9263C224.132 26.5562 215.86 29.2523 208.926 36.2621Z" fill="#FF9B21"/>
<path d="M229.754 14.0466C229.915 17.3897 230.076 20.7059 230.236 24.049C229.38 23.9412 228.576 23.8064 227.72 23.6985C228.335 20.5981 229.005 17.3358 229.674 14.0466C229.674 14.0196 229.728 14.0196 229.754 14.0466Z" fill="#FF9B21"/>
<path d="M244.934 31.571C247.745 29.6838 250.529 27.8504 253.287 26.0171C253.314 26.0441 253.314 26.071 253.34 26.098C251.092 28.5784 248.87 31.0588 246.594 33.5931C246.032 32.8921 245.496 32.245 244.934 31.571Z" fill="#FF9B21"/>
<path d="M212.031 29.0638C211.362 29.63 210.746 30.1423 210.05 30.7354C208.23 27.9584 206.409 25.2084 204.589 22.4584C204.616 22.4315 204.642 22.4045 204.696 22.3506C207.105 24.5883 209.542 26.7991 212.031 29.0638Z" fill="#FF9B21"/>
<path d="M211.925 17.3896C213.745 20.1936 215.592 23.0245 217.44 25.8823C216.663 26.2597 215.94 26.6372 215.11 27.0416C214.013 23.8333 212.942 20.6249 211.844 17.4436C211.871 17.4166 211.898 17.3896 211.925 17.3896Z" fill="#FF9B21"/>
<path d="M206.115 35.669C203.625 33.4043 201.162 31.1935 198.699 28.9827C198.726 28.9558 198.753 28.9288 198.753 28.9019C201.671 30.4386 204.616 31.9754 207.561 33.5391C207.079 34.2401 206.624 34.9141 206.115 35.669Z" fill="#FF9B21"/>
<path d="M238.295 16.0416C237.625 19.2499 236.956 22.4583 236.287 25.6936C235.457 25.397 234.681 25.1544 233.851 24.8578C235.296 21.8921 236.715 18.9534 238.134 16.0146C238.188 16.0146 238.241 16.0416 238.295 16.0416Z" fill="#FF9B21"/>
<path d="M257.998 33.5933C255.268 35.3997 252.537 37.206 249.753 39.0124C249.351 38.2036 249.003 37.4487 248.628 36.6668C251.761 35.5884 254.839 34.5369 257.891 33.4585C257.945 33.5124 257.972 33.5394 257.998 33.5933Z" fill="#FF9B21"/>
<path d="M242.176 29.0908C241.454 28.5785 240.784 28.1202 240.062 27.608C242.257 25.1276 244.452 22.6741 246.621 20.2207C246.674 20.2477 246.701 20.2746 246.754 20.3016C245.228 23.1864 243.729 26.0982 242.176 29.0908Z" fill="#FF9B21"/>
<path d="M261.077 42.5711C257.918 43.5687 254.732 44.5662 251.546 45.5907C251.386 44.728 251.252 43.8922 251.091 43.0295C254.438 42.8407 257.757 42.652 261.05 42.4902C261.05 42.5172 261.077 42.5442 261.077 42.5711Z" fill="#FF9B21"/>
<path d="M251.52 51.8997C251.653 51.0099 251.76 50.2011 251.868 49.3384C254.973 49.9854 258.186 50.6325 261.371 51.2796C261.371 51.3335 261.371 51.3604 261.371 51.4144C258.105 51.5761 254.866 51.7379 251.52 51.8997Z" fill="#FF9B21"/>
<path d="M221 14.5591C221.991 17.7135 222.954 20.8679 223.972 24.0762C223.115 24.238 222.285 24.3998 221.428 24.5346C221.241 21.1914 221.08 17.8753 220.893 14.5591C220.92 14.5591 220.947 14.5591 221 14.5591Z" fill="#FF9B21"/>
</svg>
