<svg width="282" height="91" viewBox="0 0 282 91" fill="none" xmlns="http://www.w3.org/2000/svg">
<path d="M113.53 47.7831C115.327 47.7831 116.913 47.5436 118.291 47.0945C119.668 46.6454 120.806 46.1065 121.764 45.5376C122.841 44.9089 123.799 44.1604 124.608 43.2922L124.219 49.8489C123.261 50.1483 122.243 50.3878 121.135 50.5974C120.147 50.777 119.009 50.9567 117.722 51.1064C116.434 51.2561 115.027 51.3459 113.5 51.3459C111.494 51.3459 109.488 51.0165 107.453 50.3878C105.417 49.7591 103.56 48.7411 101.914 47.334C100.237 45.9268 98.8899 44.1305 97.842 41.915C96.7941 39.6994 96.2852 37.0049 96.2852 33.8613C96.2852 30.8673 96.7941 28.2925 97.8121 26.107C98.83 23.9214 100.147 22.0951 101.734 20.6879C103.351 19.2508 105.117 18.2029 107.033 17.4844C108.979 16.7958 110.836 16.4365 112.662 16.4365C114.189 16.4365 115.536 16.5263 116.674 16.676C117.842 16.8257 118.8 17.0054 119.608 17.185C120.536 17.3946 121.315 17.664 122.003 17.9335V24.5501C121.344 23.7118 120.566 22.9933 119.668 22.3046C118.919 21.7358 117.991 21.1969 116.913 20.7478C115.836 20.2688 114.578 20.0293 113.141 20.0293C111.943 20.0293 110.716 20.2688 109.518 20.7478C108.321 21.2268 107.243 22.0053 106.285 23.0831C105.327 24.1609 104.548 25.568 103.95 27.3345C103.351 29.1009 103.051 31.2565 103.051 33.8313C103.051 36.3462 103.351 38.4719 103.95 40.2084C104.548 41.9449 105.357 43.382 106.345 44.4897C107.333 45.5975 108.441 46.4059 109.698 46.9148C110.926 47.5136 112.213 47.7831 113.53 47.7831Z" fill="black"/>
<path d="M148.26 46.1958C148.26 47.064 148.35 47.7825 148.559 48.3813C148.769 48.9801 149.009 49.4891 149.248 49.8484C149.547 50.2975 149.877 50.6567 150.236 50.8962H146.104C145.296 50.8962 144.607 50.6867 143.949 50.2376C143.32 49.7885 142.871 49.2196 142.601 48.531C142.302 48.7705 141.943 49.0699 141.464 49.3993C140.985 49.7286 140.446 50.028 139.787 50.3274C139.158 50.6268 138.44 50.8962 137.661 51.0759C136.883 51.2855 136.045 51.3753 135.177 51.3753C134.218 51.3753 133.32 51.2555 132.482 51.016C131.644 50.7765 130.895 50.3873 130.237 49.8783C129.578 49.3693 129.069 48.7107 128.68 47.9023C128.29 47.1239 128.111 46.1658 128.111 45.0581C128.111 43.5311 128.53 42.2737 129.338 41.2857C130.147 40.2977 131.225 39.4893 132.542 38.8905C133.889 38.2918 135.386 37.9025 137.063 37.663C138.739 37.4235 140.476 37.3038 142.242 37.3038V35.2679C142.242 34.0703 141.913 33.0823 141.254 32.3638C140.596 31.6452 139.578 31.256 138.141 31.256C137.272 31.256 136.464 31.4057 135.656 31.6751C134.847 31.9446 134.159 32.244 133.5 32.6033C132.781 32.9925 132.093 33.4116 131.464 33.8907V29.3399C132.153 29.0405 132.931 28.771 133.739 28.5315C134.458 28.3519 135.296 28.1722 136.224 27.9926C137.153 27.813 138.17 27.7231 139.308 27.7231C140.536 27.7231 141.703 27.9627 142.751 28.4117C143.829 28.8608 144.757 29.5195 145.565 30.3279C146.374 31.1362 147.003 32.0644 147.482 33.1422C147.931 34.22 148.17 35.3577 148.17 36.5852V46.1958H148.26ZM134.129 44.6688C134.129 45.6868 134.398 46.555 134.937 47.3035C135.476 48.052 136.404 48.4113 137.751 48.4113C138.35 48.4113 138.919 48.3514 139.428 48.2017C139.937 48.052 140.386 47.8724 140.775 47.6927C141.164 47.4832 141.464 47.2736 141.733 47.064C141.973 46.8544 142.182 46.7047 142.362 46.555V39.2199C141.793 39.2498 141.045 39.3396 140.117 39.4893C139.188 39.639 138.29 39.9085 137.422 40.2678C136.554 40.657 135.775 41.1959 135.147 41.8845C134.458 42.633 134.129 43.5311 134.129 44.6688Z" fill="black"/>
<path d="M161.822 48.3819C162.032 48.9807 162.271 49.4897 162.511 49.8489C162.81 50.298 163.14 50.6573 163.499 50.8968H153.589C153.948 50.6573 154.248 50.298 154.547 49.8489C154.786 49.4597 155.026 48.9807 155.236 48.3819C155.445 47.7831 155.535 47.0346 155.535 46.1963V21.6759C155.535 20.8077 155.445 20.0892 155.236 19.4904C155.026 18.8916 154.786 18.3826 154.547 18.0233C154.248 17.5742 153.948 17.215 153.589 16.9156L161.493 15.9575V46.1963C161.493 47.0646 161.613 47.7831 161.822 48.3819Z" fill="black"/>
<path d="M174.726 46.1964C174.726 47.0646 174.816 47.7832 175.026 48.382C175.205 48.9808 175.445 49.4897 175.684 49.849C175.984 50.2981 176.313 50.6574 176.672 50.8969H166.822C167.182 50.6574 167.481 50.2981 167.78 49.849C168.02 49.4598 168.259 48.9808 168.469 48.382C168.679 47.7832 168.768 47.0347 168.768 46.1964V33.3823C168.768 32.5141 168.679 31.7955 168.469 31.2267C168.259 30.6279 168.02 30.1489 167.78 29.7896C167.481 29.3405 167.182 28.9812 166.822 28.6818L174.726 27.7238V46.1964ZM171.134 24.5502C170.146 24.5502 169.307 24.1909 168.619 23.5023C167.93 22.8137 167.571 21.9455 167.571 20.9275C167.571 19.9395 167.93 19.1012 168.619 18.4126C169.307 17.724 170.146 17.3647 171.134 17.3647C172.151 17.3647 173.02 17.724 173.708 18.4126C174.397 19.1012 174.756 19.9395 174.756 20.9275C174.756 21.9455 174.397 22.8137 173.708 23.5023C172.99 24.1909 172.122 24.5502 171.134 24.5502Z" fill="black"/>
<path d="M186.672 24.2205C186.672 25.2983 187.121 26.2264 187.99 27.0048C188.858 27.7833 189.936 28.5318 191.253 29.2204C192.54 29.909 193.978 30.6275 195.504 31.3461C197.031 32.0646 198.438 32.9029 199.756 33.8909C201.043 34.8789 202.151 36.0166 203.019 37.3339C203.887 38.6513 204.337 40.268 204.337 42.1542C204.337 45.1182 203.139 47.3936 200.804 48.9804C198.438 50.5971 195.085 51.3755 190.774 51.3755C189.277 51.3755 187.93 51.2857 186.702 51.136C185.475 50.9863 184.427 50.8067 183.529 50.627C182.481 50.4175 181.553 50.148 180.714 49.8786L180.295 42.9326C181.163 43.8308 182.122 44.6092 183.259 45.3278C184.217 45.9266 185.355 46.4655 186.732 46.9445C188.109 47.4235 189.636 47.663 191.343 47.663C192.241 47.663 193.079 47.5732 193.858 47.3636C194.636 47.184 195.355 46.8846 195.954 46.4954C196.552 46.1062 197.031 45.6272 197.391 45.0583C197.75 44.4895 197.9 43.8308 197.9 43.0524C197.9 41.8548 197.451 40.8069 196.582 39.9087C195.714 39.0106 194.636 38.2022 193.319 37.4238C192.031 36.6453 190.594 35.8969 189.067 35.1484C187.541 34.3999 186.133 33.5616 184.816 32.6335C183.529 31.7053 182.421 30.5976 181.553 29.3701C180.684 28.1426 180.235 26.6456 180.235 24.939C180.235 23.5918 180.535 22.4241 181.104 21.4062C181.702 20.3882 182.511 19.4901 183.559 18.8015C184.606 18.0829 185.864 17.544 187.301 17.1548C188.738 16.7656 190.325 16.5859 192.031 16.5859C193.499 16.5859 194.846 16.6758 196.133 16.8255C197.391 16.9751 198.498 17.1548 199.427 17.3344C200.504 17.544 201.492 17.8135 202.391 18.0829V24.6995C201.642 23.8612 200.744 23.1427 199.726 22.4541C198.858 21.8852 197.84 21.3463 196.642 20.8972C195.445 20.4182 194.097 20.1787 192.63 20.1787C190.924 20.1787 189.487 20.5379 188.379 21.2864C187.241 21.975 186.672 22.963 186.672 24.2205Z" fill="black"/>
<path d="M232.42 28.8312C232.18 29.2205 231.941 29.6995 231.761 30.2683C231.581 30.8671 231.462 31.5857 231.462 32.424V46.1961C231.462 47.0643 231.551 47.7829 231.761 48.3817C231.941 48.9805 232.18 49.4894 232.42 49.8487C232.719 50.2978 233.048 50.6571 233.408 50.8966H228.258C227.689 50.8966 227.24 50.7768 226.881 50.5672C226.522 50.3577 226.252 50.0882 226.042 49.7888C225.833 49.4894 225.683 49.19 225.623 48.8906C225.534 48.5912 225.504 48.3517 225.504 48.202C225.144 48.5613 224.755 48.9206 224.276 49.3098C223.827 49.699 223.288 50.0283 222.719 50.3577C222.12 50.687 221.462 50.9265 220.683 51.1062C219.935 51.2858 219.097 51.4056 218.198 51.4056C215.384 51.4056 213.258 50.5672 211.881 48.8607C210.474 47.1542 209.785 44.6392 209.785 41.2561V32.4539C209.785 31.5857 209.696 30.8671 209.486 30.2983C209.276 29.6995 209.037 29.2204 208.797 28.8612C208.498 28.4121 208.199 28.0528 207.839 27.7534H217.689C217.3 28.0528 216.971 28.4121 216.701 28.8612C216.462 29.2504 216.222 29.7294 216.043 30.2983C215.863 30.8971 215.743 31.6156 215.743 32.4539V42.2142C215.743 44.3997 216.163 45.9566 216.971 46.9146C217.809 47.8428 218.857 48.3218 220.115 48.3218C221.192 48.3218 222.061 48.1422 222.749 47.7529C223.438 47.3637 223.977 46.9146 224.396 46.4057C224.815 45.8967 225.084 45.3578 225.264 44.8189C225.414 44.28 225.504 43.8608 225.504 43.5315V32.4838C225.504 31.6156 225.414 30.8971 225.204 30.3282C224.995 29.7294 224.755 29.2504 224.516 28.8911C224.216 28.442 223.917 28.0828 223.558 27.7834H233.408C233.048 28.0229 232.719 28.3821 232.42 28.8312Z" fill="black"/>
<path d="M260.653 48.3815C260.832 48.9803 261.072 49.4892 261.311 49.8485C261.611 50.2976 261.94 50.6569 262.299 50.8964H252.449C252.808 50.6569 253.108 50.2976 253.407 49.8485C253.647 49.4593 253.886 48.9803 254.096 48.3815C254.305 47.7827 254.395 47.0342 254.395 46.1959V36.4357C254.395 34.28 253.976 32.813 253.168 32.0046C252.329 31.2262 251.281 30.8071 250.024 30.8071C249.276 30.8071 248.587 30.9568 247.988 31.2861C247.389 31.6154 246.88 31.9747 246.431 32.3938C245.982 32.813 245.623 33.2321 245.324 33.6513C245.024 34.0705 244.785 34.3698 244.635 34.6094V46.166C244.635 47.0342 244.725 47.7528 244.934 48.3515C245.114 48.9503 245.353 49.4593 245.593 49.8186C245.892 50.2677 246.222 50.6269 246.581 50.8665H236.731C237.09 50.6269 237.39 50.2677 237.689 49.8186C237.929 49.4294 238.168 48.9503 238.378 48.3515C238.587 47.7528 238.677 47.0043 238.677 46.166V33.3519C238.677 32.4837 238.587 31.7651 238.378 31.1963C238.168 30.5975 237.929 30.1184 237.689 29.7592C237.39 29.3101 237.09 28.9508 236.731 28.6514L244.635 27.6934V30.4178C245.383 29.7292 246.342 29.1005 247.509 28.5317C248.677 27.9628 250.054 27.6934 251.641 27.6934C254.455 27.6934 256.611 28.4718 258.108 29.9987C259.605 31.5256 260.353 33.9806 260.353 37.3638V46.166C260.383 47.0642 260.473 47.7827 260.653 48.3815Z" fill="black"/>
<path d="M100.686 84.2796V61.855H109.877C112.871 61.855 115.207 62.5735 116.913 63.9807C118.62 65.3878 119.458 67.3339 119.458 69.8488C119.458 71.4955 119.069 72.9026 118.29 74.1002C117.512 75.2978 116.434 76.196 114.997 76.8247C113.59 77.4534 111.883 77.7827 109.877 77.7827H102.961L104.818 75.8966V84.3095H100.686V84.2796ZM104.848 76.2858L102.991 74.3098H109.728C111.554 74.3098 112.961 73.9206 113.889 73.1122C114.817 72.3338 115.296 71.226 115.296 69.8189C115.296 68.3818 114.817 67.274 113.889 66.5255C112.961 65.7471 111.584 65.3579 109.728 65.3579H102.991L104.848 63.322V76.2858ZM115.356 84.2796L109.698 76.1361H114.159L119.847 84.2796H115.356Z" fill="#EE6802"/>
<path d="M131.404 84.489C129.667 84.489 128.081 84.0998 126.733 83.3513C125.356 82.6028 124.278 81.5549 123.5 80.2376C122.721 78.9203 122.302 77.3934 122.302 75.7168C122.302 74.0102 122.691 72.4833 123.5 71.1959C124.278 69.8786 125.356 68.8606 126.733 68.1122C128.11 67.3637 129.667 67.0044 131.404 67.0044C133.17 67.0044 134.757 67.3637 136.134 68.1122C137.511 68.8606 138.589 69.8786 139.368 71.1959C140.146 72.5132 140.535 74.0102 140.535 75.7467C140.535 77.4233 140.146 78.9502 139.368 80.2676C138.589 81.5849 137.511 82.6328 136.134 83.3813C134.757 84.1297 133.17 84.489 131.404 84.489ZM131.404 81.0759C132.392 81.0759 133.26 80.8663 134.038 80.4472C134.817 80.028 135.416 79.3993 135.835 78.5909C136.284 77.7826 136.494 76.8245 136.494 75.7467C136.494 74.6389 136.284 73.6809 135.835 72.8725C135.386 72.0642 134.787 71.4654 134.038 71.0163C133.26 70.5971 132.392 70.3876 131.434 70.3876C130.446 70.3876 129.577 70.5971 128.829 71.0163C128.081 71.4354 127.482 72.0642 127.033 72.8725C126.584 73.6809 126.374 74.6389 126.374 75.7467C126.374 76.8245 126.584 77.7826 127.033 78.5909C127.482 79.3993 128.081 80.028 128.829 80.4472C129.577 80.8663 130.446 81.0759 131.404 81.0759Z" fill="#EE6802"/>
<path d="M152.062 84.489C150.326 84.489 148.739 84.0998 147.391 83.3513C146.014 82.6028 144.936 81.5549 144.158 80.2376C143.38 78.9203 142.96 77.3934 142.96 75.7168C142.96 74.0102 143.35 72.4833 144.158 71.1959C144.936 69.8786 146.014 68.8606 147.391 68.1122C148.769 67.3637 150.326 67.0044 152.062 67.0044C153.828 67.0044 155.415 67.3637 156.792 68.1122C158.17 68.8606 159.247 69.8786 160.026 71.1959C160.804 72.5132 161.194 74.0102 161.194 75.7467C161.194 77.4233 160.804 78.9502 160.026 80.2676C159.247 81.5849 158.17 82.6328 156.792 83.3813C155.415 84.1297 153.828 84.489 152.062 84.489ZM152.062 81.0759C153.05 81.0759 153.918 80.8663 154.697 80.4472C155.475 80.028 156.074 79.3993 156.493 78.5909C156.942 77.7826 157.152 76.8245 157.152 75.7467C157.152 74.6389 156.942 73.6809 156.493 72.8725C156.044 72.0642 155.445 71.4654 154.697 71.0163C153.918 70.5971 153.05 70.3876 152.092 70.3876C151.104 70.3876 150.236 70.5971 149.487 71.0163C148.739 71.4354 148.14 72.0642 147.691 72.8725C147.242 73.6809 147.032 74.6389 147.032 75.7467C147.032 76.8245 147.242 77.7826 147.691 78.5909C148.14 79.3993 148.739 80.028 149.487 80.4472C150.236 80.8663 151.104 81.0759 152.062 81.0759Z" fill="#EE6802"/>
<path d="M162.78 70.5073V67.3038H174.187V70.5073H162.78ZM165.595 84.2794V66.226C165.595 64.4296 166.134 62.9925 167.181 61.9147C168.229 60.8369 169.756 60.298 171.702 60.298C172.421 60.298 173.079 60.3878 173.708 60.5075C174.337 60.6572 174.876 60.8967 175.295 61.2261L174.217 64.25C173.918 64.0104 173.588 63.8308 173.199 63.711C172.81 63.5913 172.421 63.5314 172.002 63.5314C171.163 63.5314 170.535 63.7709 170.115 64.22C169.696 64.6691 169.487 65.3577 169.487 66.2858V68.202L169.606 69.9983V84.2794H165.595ZM178.918 64.3398C178.169 64.3398 177.57 64.1003 177.061 63.6212C176.582 63.1422 176.343 62.5733 176.343 61.9147C176.343 61.2261 176.582 60.6572 177.061 60.2081C177.54 59.759 178.169 59.5195 178.918 59.5195C179.666 59.5195 180.265 59.7291 180.774 60.1782C181.253 60.6273 181.492 61.1662 181.492 61.8249C181.492 62.5434 181.253 63.1123 180.774 63.5913C180.295 64.1003 179.696 64.3398 178.918 64.3398ZM176.942 84.2794V67.184H180.954V84.2794H176.942Z" fill="#EE6802"/>
<path d="M186.193 84.2794V67.184H189.995V71.7947L189.337 70.3876C189.935 69.3097 190.804 68.4714 191.941 67.8726C193.079 67.2739 194.396 67.0044 195.893 67.0044C197.27 67.0044 198.468 67.2739 199.576 67.8128C200.654 68.3517 201.492 69.16 202.121 70.2678C202.749 71.3756 203.049 72.7827 203.049 74.5192V84.3094H199.037V75.0282C199.037 73.5013 198.678 72.3935 197.959 71.645C197.24 70.8965 196.252 70.5373 194.965 70.5373C194.037 70.5373 193.199 70.7169 192.48 71.1061C191.762 71.4953 191.193 72.0642 190.804 72.8126C190.414 73.5611 190.205 74.5192 190.205 75.6868V84.3393H186.193V84.2794Z" fill="#EE6802"/>
<path d="M215.414 83.5007C213.797 83.5007 212.33 83.1414 211.013 82.4528C209.696 81.7642 208.678 80.8061 207.899 79.5487C207.151 78.3212 206.762 76.8541 206.762 75.1775C206.762 73.5308 207.151 72.0938 207.899 70.8662C208.648 69.6387 209.696 68.6807 211.013 67.9921C212.33 67.3035 213.797 66.9741 215.414 66.9741C216.851 66.9741 218.169 67.2735 219.336 67.8424C220.504 68.4112 221.402 69.3094 222.121 70.5369C222.809 71.7644 223.169 73.3213 223.169 75.2075C223.169 77.0936 222.809 78.6804 222.121 79.9079C221.432 81.1355 220.504 82.0336 219.336 82.6324C218.169 83.2013 216.851 83.5007 215.414 83.5007ZM215.923 90.7161C214.336 90.7161 212.809 90.5065 211.283 90.0873C209.786 89.6682 208.558 89.0694 207.57 88.291L209.366 85.2671C210.115 85.8958 211.073 86.3748 212.211 86.7641C213.348 87.1233 214.516 87.3329 215.684 87.3329C217.57 87.3329 218.947 86.9138 219.815 86.0455C220.684 85.1773 221.133 83.8899 221.133 82.1534V79.0996L221.462 75.2374L221.342 71.3752V67.2136H225.145V81.7342C225.145 84.818 224.366 87.1233 222.779 88.5604C221.193 89.9676 218.917 90.7161 215.923 90.7161ZM216.013 80.1175C217.031 80.1175 217.899 79.9079 218.708 79.4888C219.486 79.0696 220.115 78.5008 220.564 77.7523C221.013 77.0038 221.222 76.1655 221.222 75.2075C221.222 74.2494 221.013 73.4111 220.564 72.6626C220.115 71.9141 219.516 71.3453 218.708 70.9561C217.929 70.5668 217.031 70.3573 216.013 70.3573C214.995 70.3573 214.097 70.5668 213.318 70.9561C212.51 71.3453 211.911 71.9141 211.462 72.6626C211.013 73.4111 210.804 74.2494 210.804 75.2075C210.804 76.1655 211.013 77.0038 211.462 77.7523C211.911 78.5008 212.51 79.0696 213.318 79.4888C214.097 79.9079 214.995 80.1175 216.013 80.1175Z" fill="#EE6802"/>
<path d="M43.7415 35.5684C32.4244 45.4484 21.0773 55.2685 9.73031 65.0886C9.34109 65.4179 8.92194 65.7173 8.38303 66.1365C8.32316 65.6874 8.26327 65.5078 8.26327 65.2982C8.26327 56.9151 8.23332 48.5321 8.32313 40.1491C8.32313 39.4904 8.86207 38.682 9.40098 38.203C16.796 31.7361 24.221 25.2991 31.6459 18.8622C31.9154 18.6226 32.2447 18.4131 32.8435 18.0239C32.8435 24.371 32.8435 30.3888 32.8435 36.7061C33.3824 36.3468 33.6818 36.1971 33.9213 35.9875C35.8973 34.281 37.8135 32.5445 39.8194 30.8978C40.7475 30.1493 41.1368 29.311 41.1368 28.0835C41.1068 19.1017 41.1667 10.1199 41.1667 1.13803C41.1667 0.808698 41.0769 0.509304 40.9871 0.0302734C40.538 0.359607 40.2086 0.569183 39.9092 0.808699C27.0053 11.9761 14.1314 23.1734 1.22751 34.3109C0.359266 35.0594 0 35.8378 0 36.9755C0.0299394 52.1847 0.0598642 67.3939 0.0598642 82.6331C0.0598642 83.0522 0.149682 83.4415 0.209561 84.1301C0.808349 83.651 1.19756 83.3516 1.55683 83.0223C15.5685 70.8669 29.6101 58.7115 43.5918 46.5262C44.1307 46.0471 44.5798 45.8076 45.0289 45.8076V34.9097C44.6097 34.9396 44.2205 35.1193 43.7415 35.5684Z" fill="black"/>
<path d="M44.43 62.1245H35.9272V70.6273H44.43V62.1245Z" fill="#333333"/>
<path d="M44.43 73.3516H35.9272V81.8544H44.43V73.3516Z" fill="#333333"/>
<path d="M88.6803 83.2016C89.0096 83.4711 89.3689 83.7106 89.9378 84.1597C89.9677 83.4112 90.0276 83.022 90.0276 82.6328C90.0276 73.6509 90.0575 64.6691 89.9976 55.6873C89.9976 54.9388 89.4587 53.9808 88.8899 53.4718C78.7105 44.5798 68.4712 35.7477 58.2619 26.8856C57.9026 26.5563 57.3338 26.167 57.3338 25.7778C57.2439 23.2629 57.3038 20.7779 57.3038 17.8738C68.3215 27.4245 79.0099 36.7057 90.0575 46.2564C90.0575 42.7235 90.1174 39.6398 90.0276 36.556C89.9976 35.8674 89.6084 34.9992 89.0995 34.5501C76.1357 23.233 63.112 11.9758 50.0884 0.718546C49.8189 0.479031 49.4896 0.299394 49.0405 0C49.0106 0.449091 48.9507 0.688606 48.9507 0.898182C48.9507 10.1195 48.9507 19.3708 49.0405 28.5921C49.0405 29.2508 49.5196 30.119 50.0585 30.5681C60.2379 39.4601 70.4772 48.2923 80.6566 57.1843C81.1056 57.5735 81.7044 58.0525 81.7344 58.5016C81.8541 60.9566 81.7942 63.4117 81.7942 66.1361C81.2853 65.7469 80.9859 65.5673 80.7464 65.3577C69.2796 55.4478 57.8128 45.5079 46.3759 35.568C45.867 35.1189 45.4777 34.8794 45.0586 34.8794V45.7774C45.4777 45.7774 45.9268 46.0169 46.4657 46.4959C60.4774 58.801 74.5788 70.9863 88.6803 83.2016Z" fill="#FF9B21"/>
<path d="M55.6874 62.1245H47.1846V70.6273H55.6874V62.1245Z" fill="black"/>
<path d="M55.6874 73.3516H47.1846V81.8544H55.6874V73.3516Z" fill="black"/>
<path d="M223.049 24.7007C227.779 17.156 238.767 11.5573 250.204 14.9105C261.641 18.2637 268.736 29.0719 267.868 40.5087C266.641 29.4012 261.281 21.3774 250.683 17.665C240.054 13.9225 230.803 16.9165 223.049 24.7007Z" fill="#FF9B21"/>
<path d="M246.341 0.0302671C246.521 3.74275 246.701 7.4253 246.88 11.1378C245.922 11.018 245.024 10.8683 244.066 10.7486C244.755 7.30554 245.503 3.68287 246.251 0.0302671C246.251 0.000327649 246.311 0.000327649 246.341 0.0302671Z" fill="#FF9B21"/>
<path d="M263.317 19.4912C266.461 17.3955 269.574 15.3596 272.658 13.3237C272.688 13.3537 272.688 13.3836 272.718 13.4135C270.203 16.168 267.718 18.9224 265.173 21.7367C264.544 20.9583 263.946 20.2397 263.317 19.4912Z" fill="#FF9B21"/>
<path d="M226.521 16.7069C225.773 17.3356 225.084 17.9044 224.306 18.5631C222.27 15.4793 220.234 12.4255 218.198 9.37171C218.228 9.34177 218.258 9.31183 218.318 9.25195C221.013 11.7369 223.737 14.192 226.521 16.7069Z" fill="#FF9B21"/>
<path d="M226.402 3.74316C228.438 6.85686 230.503 10.0005 232.569 13.1741C231.701 13.5932 230.893 14.0124 229.965 14.4615C228.737 10.8987 227.54 7.33589 226.312 3.80304C226.342 3.7731 226.372 3.74316 226.402 3.74316Z" fill="#FF9B21"/>
<path d="M219.905 24.0416C217.121 21.5267 214.366 19.0717 211.612 16.6167C211.642 16.5867 211.672 16.5568 211.672 16.5269C214.935 18.2334 218.228 19.9399 221.522 21.6764C220.983 22.4549 220.474 23.2033 219.905 24.0416Z" fill="#FF9B21"/>
<path d="M255.892 2.24576C255.144 5.80855 254.395 9.37134 253.647 12.9641C252.719 12.6347 251.85 12.3653 250.922 12.0359C252.539 8.74261 254.126 5.47922 255.713 2.21582C255.773 2.21582 255.832 2.24576 255.892 2.24576Z" fill="#FF9B21"/>
<path d="M277.928 21.7366C274.874 23.7426 271.82 25.7485 268.706 27.7544C268.257 26.8562 267.868 26.0179 267.449 25.1497C270.952 23.9521 274.395 22.7845 277.808 21.5869C277.868 21.6468 277.898 21.6767 277.928 21.7366Z" fill="#FF9B21"/>
<path d="M260.233 16.7368C259.425 16.1679 258.677 15.659 257.868 15.0901C260.323 12.3357 262.778 9.6112 265.203 6.88672C265.263 6.91666 265.293 6.9466 265.353 6.97654C263.646 10.1801 261.97 13.4135 260.233 16.7368Z" fill="#FF9B21"/>
<path d="M281.371 31.7065C277.838 32.8143 274.275 33.922 270.712 35.0597C270.533 34.1017 270.383 33.1735 270.203 32.2155C273.946 32.0059 277.658 31.7963 281.341 31.6167C281.341 31.6466 281.371 31.6766 281.371 31.7065Z" fill="#FF9B21"/>
<path d="M270.682 42.0654C270.832 41.0774 270.952 40.1793 271.071 39.2212C274.544 39.9397 278.137 40.6583 281.7 41.3768C281.7 41.4367 281.7 41.4666 281.7 41.5265C278.047 41.7062 274.425 41.8858 270.682 42.0654Z" fill="#FF9B21"/>
<path d="M236.551 0.599609C237.659 4.10252 238.737 7.60543 239.875 11.1682C238.917 11.3479 237.988 11.5275 237.03 11.6772C236.821 7.9647 236.641 4.28216 236.432 0.599609C236.462 0.599609 236.491 0.599609 236.551 0.599609Z" fill="#FF9B21"/>
</svg>
