<svg width="56" height="56" viewBox="0 0 56 56" fill="none" xmlns="http://www.w3.org/2000/svg">
<path d="M51.625 19.25H49V11.375C49 11.2045 48.9502 11.0378 48.8567 10.8952C48.7633 10.7527 48.6302 10.6405 48.4738 10.5726L28.3488 1.82258C28.2388 1.77471 28.12 1.75 28 1.75C27.88 1.75 27.7612 1.77471 27.6512 1.82258L7.52615 10.5726C7.36982 10.6405 7.23675 10.7527 7.14328 10.8952C7.04981 11.0378 7.00001 11.2045 7 11.375V28.6553L2.16646 31.6298C2.03918 31.7081 1.93408 31.8177 1.86118 31.9482C1.78828 32.0786 1.75 32.2256 1.75 32.375V53.375C1.75 53.6071 1.84219 53.8296 2.00628 53.9937C2.17038 54.1578 2.39294 54.25 2.625 54.25H25.375C25.49 54.2501 25.6039 54.2276 25.7101 54.1835C25.8163 54.1395 25.9128 54.0749 25.9939 53.9935C26.3469 54.1627 26.7335 54.2504 27.125 54.25H49.875V52.5H27.125C26.893 52.4997 26.6706 52.4075 26.5066 52.2434C26.3425 52.0794 26.2503 51.857 26.25 51.625V21.875C26.2503 21.643 26.3425 21.4206 26.5066 21.2566C26.6706 21.0925 26.893 21.0003 27.125 21H34.125V22.75H28.875C28.6429 22.75 28.4204 22.8422 28.2563 23.0063C28.0922 23.1704 28 23.3929 28 23.625V49.875C28 50.1071 28.0922 50.3296 28.2563 50.4937C28.4204 50.6578 28.6429 50.75 28.875 50.75H41.125V49H29.75V24.5H34.125V25.375C34.125 25.6071 34.2172 25.8296 34.3813 25.9937C34.5454 26.1578 34.7679 26.25 35 26.25H43.75C43.9821 26.25 44.2046 26.1578 44.3687 25.9937C44.5328 25.8296 44.625 25.6071 44.625 25.375V24.5H49V39.375H50.75V23.625C50.75 23.3929 50.6578 23.1704 50.4937 23.0063C50.3296 22.8422 50.1071 22.75 49.875 22.75H44.625V21H51.625C51.857 21.0003 52.0794 21.0925 52.2434 21.2566C52.4075 21.4206 52.4997 21.643 52.5 21.875V49.875H54.25V21.875C54.2492 21.1791 53.9724 20.5118 53.4803 20.0197C52.9882 19.5276 52.3209 19.2508 51.625 19.25ZM17.5 52.5H10.5V40.25H17.5V52.5ZM24.5 51.625V52.5H19.25V39.375C19.25 39.1429 19.1578 38.9204 18.9937 38.7563C18.8296 38.5922 18.6071 38.5 18.375 38.5H9.625C9.39294 38.5 9.17038 38.5922 9.00628 38.7563C8.84219 38.9204 8.75 39.1429 8.75 39.375V52.5H3.5V32.8639L14 26.4024L24.5 32.8639V51.625ZM30.625 19.25H27.125C26.4788 19.2496 25.8554 19.4884 25.375 19.9205V12.25H30.625V19.25ZM34.7934 19.25H32.375V12.25H37.625V16.2205C37.1763 16.4801 36.7907 16.8359 36.496 17.2623C36.2012 17.6887 36.0046 18.1751 35.9203 18.6866L34.7934 19.25ZM42.875 24.5H35.875V20.6658L37.1414 20.0326C37.2867 19.9599 37.4089 19.8482 37.4943 19.71C37.5798 19.5718 37.625 19.4125 37.625 19.25C37.625 18.7859 37.8094 18.3408 38.1376 18.0126C38.4658 17.6844 38.9109 17.5 39.375 17.5C39.8391 17.5 40.2842 17.6844 40.6124 18.0126C40.9406 18.3408 41.125 18.7859 41.125 19.25C41.125 19.4125 41.1702 19.5718 41.2557 19.71C41.3411 19.8482 41.4633 19.9599 41.6086 20.0326L42.875 20.6658V24.5ZM47.25 19.25H43.9566L42.8297 18.6866C42.6949 17.8672 42.2737 17.1224 41.641 16.5846C41.0083 16.0468 40.2053 15.7511 39.375 15.75V11.375C39.375 11.1429 39.2828 10.9204 39.1187 10.7563C38.9546 10.5922 38.7321 10.5 38.5 10.5H17.5C17.2679 10.5 17.0454 10.5922 16.8813 10.7563C16.7172 10.9204 16.625 11.1429 16.625 11.375V21.875C16.625 22.1071 16.7172 22.3296 16.8813 22.4937C17.0454 22.6578 17.2679 22.75 17.5 22.75H24.5V30.8091L14.4585 24.6298C14.3206 24.5449 14.1619 24.5 14 24.5C13.8381 24.5 13.6794 24.5449 13.5415 24.6298L8.75 27.5784V11.9487L28 3.57915L47.25 11.9487V19.25ZM23.625 12.25V21H18.375V12.25H23.625Z" fill="#FF9B21"/>
<path d="M13.5498 28.9997L9.17479 31.6247C9.04523 31.7025 8.93802 31.8124 8.86358 31.9439C8.78913 32.0754 8.75001 32.2239 8.75 32.375V35.875C8.75 36.1071 8.84219 36.3296 9.00628 36.4937C9.17038 36.6578 9.39294 36.75 9.625 36.75H18.375C18.6071 36.75 18.8296 36.6578 18.9937 36.4937C19.1578 36.3296 19.25 36.1071 19.25 35.875V32.375C19.25 32.2239 19.2109 32.0754 19.1364 31.9439C19.062 31.8124 18.9548 31.7025 18.8252 31.6247L14.4502 28.9997C14.3142 28.9181 14.1586 28.875 14 28.875C13.8414 28.875 13.6858 28.9181 13.5498 28.9997ZM17.5 32.8704V35H10.5V32.8704L14 30.7705L17.5 32.8704Z" fill="#FF9B21"/>
<path d="M49.8748 43.75C49.8753 42.5997 49.4982 41.481 48.8013 40.5658C48.1044 39.6505 47.1263 38.9894 46.0172 38.6839C44.9082 38.3785 43.7295 38.4455 42.6623 38.8748C41.5951 39.3041 40.6983 40.072 40.1097 41.0603C39.5211 42.0487 39.2733 43.203 39.4043 44.3458C39.5353 45.4887 40.0379 46.5569 40.8348 47.3865C41.6318 48.216 42.679 48.761 43.8157 48.9377C44.9524 49.1144 46.1157 48.913 47.1268 48.3645L52.756 53.9937L53.9936 52.7563L48.5122 47.2749C49.3899 46.3109 49.8759 45.0538 49.8748 43.75ZM44.6248 47.25C43.9326 47.25 43.2559 47.0448 42.6803 46.6602C42.1047 46.2756 41.6561 45.729 41.3912 45.0894C41.1263 44.4499 41.057 43.7462 41.1921 43.0672C41.3271 42.3883 41.6604 41.7647 42.1499 41.2752C42.6394 40.7857 43.2631 40.4523 43.942 40.3173C44.6209 40.1822 45.3247 40.2516 45.9642 40.5165C46.6037 40.7814 47.1504 41.23 47.5349 41.8055C47.9195 42.3811 48.1248 43.0578 48.1248 43.75C48.1238 44.678 47.7547 45.5676 47.0985 46.2238C46.4424 46.8799 45.5527 47.249 44.6248 47.25Z" fill="#FF9B21"/>
<path d="M37.8813 27.3813L34.1251 31.1376L32.9939 30.0063L31.7563 31.2438L33.5063 32.9938C33.6705 33.1579 33.893 33.2501 34.1251 33.2501C34.3572 33.2501 34.5798 33.1579 34.7439 32.9938L39.1189 28.6188L37.8813 27.3813Z" fill="#FF9B21"/>
<path d="M47.25 28.875H40.25V30.625H47.25V28.875Z" fill="#FF9B21"/>
<path d="M37.8813 33.5063L34.1251 37.2626L32.9939 36.1313L31.7563 37.3688L33.5063 39.1188C33.6705 39.2829 33.893 39.3751 34.1251 39.3751C34.3572 39.3751 34.5798 39.2829 34.7439 39.1188L39.1189 34.7438L37.8813 33.5063Z" fill="#FF9B21"/>
<path d="M47.25 34.125H40.25V35.875H47.25V34.125Z" fill="#FF9B21"/>
<path d="M32.9939 42.2563L31.7563 43.4938L33.5063 45.2438C33.6705 45.4079 33.893 45.5001 34.1251 45.5001C34.3572 45.5001 34.5798 45.4079 34.7439 45.2438L39.1189 40.8688L37.8813 39.6313L34.1251 43.3876L32.9939 42.2563Z" fill="#FF9B21"/>
</svg>
