<svg width="58" height="58" viewBox="0 0 58 58" fill="none" xmlns="http://www.w3.org/2000/svg">
<path fill-rule="evenodd" clip-rule="evenodd" d="M9.39229 23.307C10.0479 23.307 10.7169 23.2267 11.3591 23.093V37.5428C10.088 37.2083 8.69656 37.2083 7.42551 37.5428V23.093C8.06772 23.2267 8.72332 23.307 9.39229 23.307ZM49.4237 51.2032V46.5204C49.4237 45.9718 48.9688 45.7444 48.5005 45.7444V35.1746C53.0227 35.964 56.4345 39.2152 56.4345 43.0953V51.2032H53.1298V44.286C53.1298 43.2826 51.5911 43.2826 51.5911 44.286V51.2032H49.4237ZM46.9485 45.7444H46.2126V34.9873L46.9485 35.0007V45.7444ZM44.674 45.7444H31.3212V34.9873H32.8331L37.3019 44.0853C37.5828 44.6473 38.4124 44.6473 38.6933 44.0853L43.1621 34.9873H44.674V45.7444ZM29.7826 45.7444H29.0467V35.0007L29.7826 34.9873V45.7444ZM27.5081 45.7444C27.0264 45.7444 26.5715 45.9718 26.5715 46.5204V51.2032H24.4174V44.286C24.4174 43.2826 22.8654 43.2826 22.8654 44.286V51.2032H19.5741V43.0953C19.5741 39.2152 22.9725 35.964 27.5081 35.1746V45.7444ZM28.1102 51.2032V47.2964H47.885V51.2032H28.1102ZM28.3376 19.4805H29.0066V24.257C29.0066 27.4279 30.6656 30.2242 33.1542 31.8297L32.7261 33.4353C31.2276 33.4353 29.7157 33.3684 28.2172 33.5156C22.4774 34.1043 18.0354 38.1716 18.0354 43.0953V51.9792C18.0354 52.4074 18.3699 52.7552 18.7981 52.7552H57.1971C57.6253 52.7552 57.9731 52.4074 57.9731 51.9792V43.0953C57.9731 37.409 52.3002 33.4754 46.3464 33.4353H43.2825L42.841 31.8297C45.3429 30.2242 46.9886 27.4279 46.9886 24.257V19.4805H47.6576C50.0926 19.4805 50.6947 16.1356 48.5272 15.2124C48.1392 9.60645 43.4564 5.25812 37.9976 5.25812C32.5522 5.25812 27.8693 9.60645 27.468 15.2124C25.3139 16.1356 25.9159 19.4805 28.3376 19.4805ZM47.7245 16.5905C48.554 16.6708 48.5005 17.9419 47.6576 17.9419H28.3376C27.4278 17.9419 27.5215 16.5772 28.3376 16.5772H47.671L47.7245 16.5905ZM35.4154 15.0385V7.18477C37.061 6.67635 38.9475 6.67635 40.5798 7.18477V15.0385H35.4154ZM33.8767 7.82698V15.0385H29.0334C29.3545 11.9077 31.241 9.23182 33.8767 7.82698ZM42.1319 15.0385V7.82698C44.7542 9.23182 46.6407 11.9077 46.9618 15.0385H42.1319ZM37.9976 33.248C39.2151 33.248 40.3791 33.0071 41.4495 32.5656L41.8643 34.131L37.9976 41.9981L34.1309 34.131L34.5591 32.5656C35.6161 33.0071 36.7801 33.248 37.9976 33.248ZM45.45 19.4805V24.257C45.45 28.418 42.0382 31.7093 37.9976 31.7093C33.9704 31.7093 30.5586 28.418 30.5586 24.257V19.4805H45.45ZM9.39229 49.8251C9.83381 49.8251 12.6836 48.0457 13.259 47.7112C13.4998 47.564 13.647 47.3098 13.647 47.0422V43.0016C13.647 42.734 13.4998 42.4798 13.259 42.3326L9.7803 40.3257C9.53946 40.1919 9.24512 40.1919 9.00429 40.3257L5.51225 42.3326C5.27142 42.4798 5.12424 42.734 5.12424 43.0016V47.0422C5.12424 47.3098 5.27142 47.564 5.51225 47.7112C6.10094 48.0457 8.95077 49.8251 9.39229 49.8251ZM12.1083 46.5873L9.39229 48.1661L6.67626 46.5873V43.4565L9.39229 41.8911L12.1083 43.4565V46.5873ZM9.39229 34.3451C9.82043 34.3451 10.1549 33.9972 10.1549 33.5825V27.1336C10.1549 26.1435 8.61628 26.1435 8.61628 27.1336V33.5825C8.61628 33.9972 8.96415 34.3451 9.39229 34.3451ZM9.39229 52.7552C13.647 52.7552 17.1122 49.2766 17.1122 45.0219C17.1122 42.0249 15.3997 39.4293 12.8977 38.1449V22.6113C20.5374 19.5073 20.7515 8.57623 13.0315 5.31164C12.5231 5.09757 11.9478 5.48557 11.9478 6.02075V13.1654H6.82343V6.02075C6.82343 5.47219 6.24812 5.09757 5.75307 5.31164C-1.98026 8.56285 -1.75281 19.5206 5.87349 22.6113V38.1449C3.37153 39.4293 1.65896 42.0249 1.65896 45.0219C1.65896 49.2766 5.12424 52.7552 9.39229 52.7552ZM10.7838 39.0011C13.5265 39.63 15.5736 42.0918 15.5736 45.0219C15.5736 48.4337 12.8041 51.2032 9.39229 51.2032C5.98053 51.2032 3.21098 48.4337 3.21098 45.0219C3.21098 40.9813 7.0375 38.1315 10.7838 39.0011ZM10.65 21.648C6.0608 22.3972 1.5653 18.8383 1.5653 13.9414C1.5653 11.1986 2.9969 8.69665 5.28479 7.27842V13.9414C5.28479 14.3695 5.63266 14.7174 6.04742 14.7174H12.7238C13.1519 14.7174 13.4998 14.3695 13.4998 13.9414V7.27842C19.6142 11.0514 17.7545 20.4706 10.65 21.648Z" fill="#FF9B21"/>
</svg>
