<svg width="54" height="54" viewBox="0 0 54 54" fill="none" xmlns="http://www.w3.org/2000/svg">
<path d="M13.5 23.625H33.75C34.2164 23.625 34.5938 23.2476 34.5938 22.7812C34.5938 22.3149 34.2164 21.9375 33.75 21.9375H13.5C13.0336 21.9375 12.6562 22.3149 12.6562 22.7812C12.6562 23.2476 13.0336 23.625 13.5 23.625Z" fill="#FF9B21"/>
<path d="M13.5 27.8438H30.375C30.8414 27.8438 31.2188 27.4664 31.2188 27C31.2188 26.5336 30.8414 26.1562 30.375 26.1562H13.5C13.0336 26.1562 12.6562 26.5336 12.6562 27C12.6562 27.4664 13.0336 27.8438 13.5 27.8438Z" fill="#FF9B21"/>
<path d="M13.5 19.4062H26.1562C26.6226 19.4062 27 19.0289 27 18.5625C27 18.0961 26.6226 17.7188 26.1562 17.7188H13.5C13.0336 17.7188 12.6562 18.0961 12.6562 18.5625C12.6562 19.0289 13.0336 19.4062 13.5 19.4062Z" fill="#FF9B21"/>
<path d="M13.5 40.5H23.625C24.0914 40.5 24.4688 40.1226 24.4688 39.6562C24.4688 39.1899 24.0914 38.8125 23.625 38.8125H13.5C13.0336 38.8125 12.6562 39.1899 12.6562 39.6562C12.6562 40.1226 13.0336 40.5 13.5 40.5Z" fill="#FF9B21"/>
<path d="M13.5 36.2812H24.4688C24.9351 36.2812 25.3125 35.9039 25.3125 35.4375C25.3125 34.9711 24.9351 34.5938 24.4688 34.5938H13.5C13.0336 34.5938 12.6562 34.9711 12.6562 35.4375C12.6562 35.9039 13.0336 36.2812 13.5 36.2812Z" fill="#FF9B21"/>
<path d="M13.5 32.0625H27C27.4664 32.0625 27.8438 31.6851 27.8438 31.2188C27.8438 30.7524 27.4664 30.375 27 30.375H13.5C13.0336 30.375 12.6562 30.7524 12.6562 31.2188C12.6562 31.6851 13.0336 32.0625 13.5 32.0625Z" fill="#FF9B21"/>
<path d="M39.6562 27.8438V11.8125C39.6562 11.6997 39.6333 11.5897 39.5908 11.4877C39.5478 11.3849 39.4857 11.2923 39.408 11.2149L30.9726 2.77951C30.8952 2.70181 30.8026 2.63965 30.6997 2.5967C30.5978 2.55417 30.4878 2.53125 30.375 2.53125H10.125C8.72918 2.53125 7.59375 3.66668 7.59375 5.0625V7.59375H5.0625C3.66668 7.59375 2.53125 8.72918 2.53125 10.125V48.9375C2.53125 50.3333 3.66668 51.4688 5.0625 51.4688H32.0625C33.0146 51.4688 33.8355 50.9343 34.2676 50.1554C35.8854 50.9892 37.7144 51.4688 39.6562 51.4688C46.1698 51.4688 51.4688 46.1698 51.4688 39.6562C51.4688 33.1427 46.1698 27.8438 39.6562 27.8438ZM31.2188 5.41186L36.7756 10.9688H31.2188V5.41186ZM9.28125 5.0625C9.28125 4.59695 9.65945 4.21875 10.125 4.21875H29.5312V11.8125C29.5312 12.2789 29.9086 12.6562 30.375 12.6562H37.9688V27.9785C32.2539 28.8017 27.8438 33.7171 27.8438 39.6562C27.8438 41.4695 28.2665 43.1818 28.9997 44.7188H10.125C9.65945 44.7188 9.28125 44.3405 9.28125 43.875V5.0625ZM32.0625 49.7812H5.0625C4.59695 49.7812 4.21875 49.403 4.21875 48.9375V10.125C4.21875 9.65945 4.59695 9.28125 5.0625 9.28125H7.59375V43.875C7.59375 45.2708 8.72918 46.4062 10.125 46.4062H29.9761C30.7556 47.5207 31.7227 48.4915 32.8305 49.2797C32.6988 49.5741 32.4056 49.7812 32.0625 49.7812ZM39.6562 49.7812C34.073 49.7812 29.5312 45.2395 29.5312 39.6562C29.5312 34.073 34.073 29.5312 39.6562 29.5312C45.2395 29.5312 49.7812 34.073 49.7812 39.6562C49.7812 45.2395 45.2395 49.7812 39.6562 49.7812Z" fill="#FF9B21"/>
<path d="M44.966 34.8409L38.0389 41.7681L35.253 38.2852C34.9613 37.921 34.4307 37.8616 34.0665 38.1533C33.7031 38.445 33.6438 38.9756 33.9346 39.3398L37.3096 43.5586C37.4596 43.7456 37.6829 43.8602 37.9218 43.8734C38.1596 43.8865 38.3974 43.7967 38.5654 43.6278L46.1591 36.0341C46.4887 35.7045 46.4887 35.1705 46.1591 34.8409C45.8295 34.5114 45.2956 34.5113 44.966 34.8409Z" fill="#FF9B21"/>
</svg>
