<svg width="104" height="18" viewBox="0 0 104 18" fill="none" xmlns="http://www.w3.org/2000/svg">
<path d="M16.8247 7.73454L13.3208 11.15L14.1483 15.974C14.1843 16.185 14.0977 16.3982 13.9244 16.5242C13.8265 16.5956 13.7101 16.6316 13.5937 16.6316C13.5042 16.6316 13.4142 16.6102 13.3321 16.5669L8.99972 14.2893L4.66791 16.5663C4.47891 16.6665 4.24885 16.6502 4.0756 16.5236C3.90235 16.3976 3.81572 16.1844 3.85172 15.9735L4.67916 11.1495L1.17478 7.73454C1.02178 7.58491 0.966097 7.36104 1.03247 7.15797C1.09885 6.95491 1.27491 6.80585 1.48697 6.77491L6.32954 6.07178L8.49516 1.68316C8.68472 1.29897 9.31472 1.29897 9.50428 1.68316L11.6699 6.07178L16.5125 6.77491C16.7245 6.80585 16.9006 6.95435 16.967 7.15797C17.0333 7.3616 16.9777 7.58435 16.8247 7.73454Z" fill="#FFD362"/>
<path d="M38.7592 7.73454L35.0607 11.15L35.9341 15.974C35.9721 16.185 35.8807 16.3982 35.6978 16.5242C35.5945 16.5956 35.4716 16.6316 35.3487 16.6316C35.2543 16.6316 35.1593 16.6102 35.0726 16.5669L30.4995 14.2893L25.9271 16.5663C25.7276 16.6665 25.4847 16.6502 25.3019 16.5236C25.119 16.3976 25.0275 16.1844 25.0655 15.9735L25.939 11.1495L22.2399 7.73454C22.0784 7.58491 22.0196 7.36104 22.0897 7.15797C22.1597 6.95491 22.3456 6.80585 22.5694 6.77491L27.681 6.07178L29.967 1.68316C30.167 1.29897 30.832 1.29897 31.0321 1.68316L33.3181 6.07178L38.4297 6.77491C38.6535 6.80585 38.8394 6.95435 38.9094 7.15797C38.9795 7.3616 38.9207 7.58435 38.7592 7.73454Z" fill="#FFD362"/>
<path d="M59.8247 7.73454L56.3208 11.15L57.1483 15.974C57.1843 16.185 57.0977 16.3982 56.9244 16.5242C56.8265 16.5956 56.7101 16.6316 56.5937 16.6316C56.5042 16.6316 56.4142 16.6102 56.3321 16.5669L51.9997 14.2893L47.6679 16.5663C47.4789 16.6665 47.2488 16.6502 47.0756 16.5236C46.9023 16.3976 46.8157 16.1844 46.8517 15.9735L47.6792 11.1495L44.1748 7.73454C44.0218 7.58491 43.9661 7.36104 44.0325 7.15797C44.0988 6.95491 44.2749 6.80585 44.487 6.77491L49.3295 6.07178L51.4952 1.68316C51.6847 1.29897 52.3147 1.29897 52.5043 1.68316L54.6699 6.07178L59.5125 6.77491C59.7245 6.80585 59.9006 6.95435 59.967 7.15797C60.0333 7.3616 59.9777 7.58435 59.8247 7.73454Z" fill="#FFD362"/>
<path d="M81.7592 7.73454L78.0607 11.15L78.9341 15.974C78.9721 16.185 78.8807 16.3982 78.6978 16.5242C78.5945 16.5956 78.4716 16.6316 78.3487 16.6316C78.2543 16.6316 78.1593 16.6102 78.0726 16.5669L73.4995 14.2893L68.9271 16.5663C68.7276 16.6665 68.4847 16.6502 68.3019 16.5236C68.119 16.3976 68.0275 16.1844 68.0655 15.9735L68.939 11.1495L65.2399 7.73454C65.0784 7.58491 65.0196 7.36104 65.0897 7.15797C65.1597 6.95491 65.3456 6.80585 65.5694 6.77491L70.681 6.07178L72.967 1.68316C73.167 1.29897 73.832 1.29897 74.0321 1.68316L76.3181 6.07178L81.4297 6.77491C81.6535 6.80585 81.8394 6.95435 81.9094 7.15797C81.9795 7.3616 81.9207 7.58435 81.7592 7.73454Z" fill="#FFD362"/>
<path d="M102.825 7.73454L99.3208 11.15L100.148 15.974C100.184 16.185 100.098 16.3982 99.9244 16.5242C99.8265 16.5956 99.7101 16.6316 99.5937 16.6316C99.5042 16.6316 99.4142 16.6102 99.3321 16.5669L94.9997 14.2893L90.6679 16.5663C90.4789 16.6665 90.2488 16.6502 90.0756 16.5236C89.9023 16.3976 89.8157 16.1844 89.8517 15.9735L90.6792 11.1495L87.1748 7.73454C87.0218 7.58491 86.9661 7.36104 87.0325 7.15797C87.0988 6.95491 87.2749 6.80585 87.487 6.77491L92.3295 6.07178L94.4952 1.68316C94.6847 1.29897 95.3147 1.29897 95.5043 1.68316L97.6699 6.07178L102.512 6.77491C102.725 6.80585 102.901 6.95435 102.967 7.15797C103.033 7.3616 102.978 7.58435 102.825 7.73454Z" fill="#FFD362"/>
</svg>
