<svg width="56" height="56" viewBox="0 0 56 56" fill="none" xmlns="http://www.w3.org/2000/svg">
<path d="M53.7031 21.3805H51.7738V19.4511C51.7738 19.0891 51.4795 18.7949 51.1175 18.7949H47.2205V14.8979C47.2205 13.1271 45.78 11.6866 44.0092 11.6866H40.145C39.783 11.6866 39.4888 11.9808 39.4888 12.3429V14.2416H26.0061C25.8442 13.9868 25.5883 13.7932 25.2798 13.7133L18.8497 12.0519L17.1872 5.62176C17.0472 5.08145 16.5605 4.7041 16.0027 4.7041C15.4448 4.7041 14.957 5.08145 14.8181 5.62176L13.1567 12.0519L6.72656 13.7133C6.41813 13.7932 6.16219 13.9868 6.00031 14.2416H2.29688C1.93484 14.2416 1.64062 14.5358 1.64062 14.8979V46.5641C1.64062 46.9261 1.93484 47.2204 2.29688 47.2204H6.19391V51.1174C6.19391 51.4794 6.48813 51.7736 6.85016 51.7736H8.77953V53.703C8.77953 54.065 9.07375 54.3593 9.43578 54.3593H53.7031C54.0652 54.3593 54.3594 54.065 54.3594 53.703V22.0368C54.3594 21.6747 54.0652 21.3805 53.7031 21.3805ZM40.8013 12.9991H44.0092C45.0559 12.9991 45.908 13.8511 45.908 14.8979V41.4202C45.3753 41.0286 44.7191 40.7968 44.0092 40.7968H40.8013V12.9991ZM39.4888 22.4885L16.0694 45.9079H10.1817L39.4888 16.6008V22.4885ZM39.4888 24.3446V30.2322L23.8131 45.9079H17.9255L39.4888 24.3446ZM39.4888 32.0872V37.9749L31.5558 45.9079H25.6681L39.4888 32.0872ZM39.4888 39.831V41.453C39.4888 41.815 39.783 42.1093 40.145 42.1093H43.097L39.2995 45.9068H33.4119L39.4888 39.831ZM44.7858 42.2777C45.4464 42.5752 45.908 43.238 45.908 44.0091C45.908 45.0558 45.0559 45.9079 44.0092 45.9079H41.1556L44.7858 42.2777ZM25.2798 16.0835C25.5883 16.0036 25.8442 15.81 26.0061 15.5552H30.9356L2.95312 43.5366V37.6489L15.5837 25.0183C15.715 25.0664 15.8561 25.0927 16.0027 25.0927C16.5605 25.0927 17.0483 24.7154 17.1872 24.175L17.4519 23.1502L24.255 16.3471L25.2798 16.0835ZM2.95312 22.1625L8.55859 16.5571L13.1556 17.7449L13.1764 17.8269L2.95312 28.0502V22.1625ZM2.95312 29.9063L13.5581 19.3013L14.7667 23.9804L2.95312 35.7939V29.9063ZM18.0983 20.6488L18.8486 17.7449L21.7525 16.9946L18.0983 20.6488ZM13.8589 13.2255C14.0897 13.1654 14.2702 12.9849 14.3303 12.7541L16.0027 6.28129L17.675 12.7541C17.7352 12.9849 17.9156 13.1654 18.1464 13.2255L24.6192 14.8979L18.1453 16.5702C17.9145 16.6304 17.7341 16.8108 17.6739 17.0416L16.0016 23.5144L14.3292 17.0416C14.2691 16.8108 14.0886 16.6304 13.8578 16.5702L7.385 14.8979L13.8589 13.2255ZM5.99922 15.5541C6.16109 15.8089 6.41703 16.0025 6.72547 16.0824L7.08422 16.1754L2.95312 20.3064V15.5541H5.99922ZM2.95312 45.3927L32.7917 15.5541H38.6794L8.32563 45.9079H2.95312V45.3927ZM7.50641 47.2204H44.0081C45.7789 47.2204 47.2194 45.7799 47.2194 44.0091V20.1074H50.4602V50.4611H7.50641V47.2204ZM53.0469 53.0468H10.092V51.7736H51.1175C51.4795 51.7736 51.7738 51.4794 51.7738 51.1174V22.693H53.0469V53.0468ZM26.1527 8.38129L29.4536 9.23441L30.3067 12.5364C30.4161 12.9619 30.8 13.2583 31.2386 13.2583C31.6772 13.2583 32.0611 12.9619 32.1705 12.5364L33.0236 9.23441L36.3245 8.38129C36.75 8.27191 37.0464 7.88801 37.0464 7.44941C37.0464 7.01082 36.75 6.62691 36.3245 6.51754L33.0236 5.66441L32.1705 2.36348C32.0611 1.93801 31.6772 1.6416 31.2386 1.6416C30.8 1.6416 30.4161 1.93801 30.3067 2.36348L29.4536 5.66441L26.1516 6.51754C25.7261 6.62691 25.4297 7.01082 25.4297 7.44941C25.4297 7.88801 25.7272 8.27191 26.1527 8.38129ZM30.1569 6.83801C30.3877 6.77785 30.5681 6.59738 30.6283 6.3666L31.2397 4.00082L31.8511 6.3666C31.9112 6.59738 32.0917 6.77785 32.3225 6.83801L34.6883 7.44941L32.3225 8.06082C32.0917 8.12098 31.9112 8.30145 31.8511 8.53223L31.2397 10.898L30.6283 8.53113C30.5681 8.30035 30.3877 8.11988 30.1569 8.05973L27.7911 7.44832L30.1569 6.83801Z" fill="#FF9B21"/>
</svg>
