<svg width="50" height="50" viewBox="0 0 50 50" fill="none" xmlns="http://www.w3.org/2000/svg">
<path d="M11.5 21.625H31.75C32.2164 21.625 32.5938 21.2476 32.5938 20.7812C32.5938 20.3149 32.2164 19.9375 31.75 19.9375H11.5C11.0336 19.9375 10.6562 20.3149 10.6562 20.7812C10.6562 21.2476 11.0336 21.625 11.5 21.625Z" fill="#FF9B21"/>
<path d="M11.5 25.8438H28.375C28.8414 25.8438 29.2188 25.4664 29.2188 25C29.2188 24.5336 28.8414 24.1562 28.375 24.1562H11.5C11.0336 24.1562 10.6562 24.5336 10.6562 25C10.6562 25.4664 11.0336 25.8438 11.5 25.8438Z" fill="#FF9B21"/>
<path d="M11.5 17.4062H24.1562C24.6226 17.4062 25 17.0289 25 16.5625C25 16.0961 24.6226 15.7188 24.1562 15.7188H11.5C11.0336 15.7188 10.6562 16.0961 10.6562 16.5625C10.6562 17.0289 11.0336 17.4062 11.5 17.4062Z" fill="#FF9B21"/>
<path d="M11.5 38.5H21.625C22.0914 38.5 22.4688 38.1226 22.4688 37.6562C22.4688 37.1899 22.0914 36.8125 21.625 36.8125H11.5C11.0336 36.8125 10.6562 37.1899 10.6562 37.6562C10.6562 38.1226 11.0336 38.5 11.5 38.5Z" fill="#FF9B21"/>
<path d="M11.5 34.2812H22.4688C22.9351 34.2812 23.3125 33.9039 23.3125 33.4375C23.3125 32.9711 22.9351 32.5938 22.4688 32.5938H11.5C11.0336 32.5938 10.6562 32.9711 10.6562 33.4375C10.6562 33.9039 11.0336 34.2812 11.5 34.2812Z" fill="#FF9B21"/>
<path d="M11.5 30.0625H25C25.4664 30.0625 25.8438 29.6851 25.8438 29.2188C25.8438 28.7524 25.4664 28.375 25 28.375H11.5C11.0336 28.375 10.6562 28.7524 10.6562 29.2188C10.6562 29.6851 11.0336 30.0625 11.5 30.0625Z" fill="#FF9B21"/>
<path d="M37.6562 25.8438V9.8125C37.6562 9.69972 37.6333 9.58967 37.5908 9.48775C37.5478 9.3849 37.4857 9.29226 37.408 9.21486L28.9726 0.779515C28.8952 0.701806 28.8026 0.639647 28.6997 0.5967C28.5978 0.554166 28.4878 0.53125 28.375 0.53125H8.125C6.72918 0.53125 5.59375 1.66668 5.59375 3.0625V5.59375H3.0625C1.66668 5.59375 0.53125 6.72918 0.53125 8.125V46.9375C0.53125 48.3333 1.66668 49.4688 3.0625 49.4688H30.0625C31.0146 49.4688 31.8355 48.9343 32.2676 48.1554C33.8854 48.9892 35.7144 49.4688 37.6562 49.4688C44.1698 49.4688 49.4688 44.1698 49.4688 37.6562C49.4688 31.1427 44.1698 25.8438 37.6562 25.8438ZM29.2188 3.41186L34.7756 8.96875H29.2188V3.41186ZM7.28125 3.0625C7.28125 2.59695 7.65945 2.21875 8.125 2.21875H27.5312V9.8125C27.5312 10.2789 27.9086 10.6562 28.375 10.6562H35.9688V25.9785C30.2539 26.8017 25.8438 31.7171 25.8438 37.6562C25.8438 39.4695 26.2665 41.1818 26.9997 42.7188H8.125C7.65945 42.7188 7.28125 42.3405 7.28125 41.875V3.0625ZM30.0625 47.7812H3.0625C2.59695 47.7812 2.21875 47.403 2.21875 46.9375V8.125C2.21875 7.65945 2.59695 7.28125 3.0625 7.28125H5.59375V41.875C5.59375 43.2708 6.72918 44.4062 8.125 44.4062H27.9761C28.7556 45.5207 29.7227 46.4915 30.8305 47.2797C30.6988 47.5741 30.4056 47.7812 30.0625 47.7812ZM37.6562 47.7812C32.073 47.7812 27.5312 43.2395 27.5312 37.6562C27.5312 32.073 32.073 27.5312 37.6562 27.5312C43.2395 27.5312 47.7812 32.073 47.7812 37.6562C47.7812 43.2395 43.2395 47.7812 37.6562 47.7812Z" fill="#FF9B21"/>
<path d="M42.966 32.8409L36.0389 39.7681L33.253 36.2852C32.9613 35.921 32.4307 35.8616 32.0665 36.1533C31.7031 36.445 31.6438 36.9756 31.9346 37.3398L35.3096 41.5586C35.4596 41.7456 35.6829 41.8602 35.9218 41.8734C36.1596 41.8865 36.3974 41.7967 36.5654 41.6278L44.1591 34.0341C44.4887 33.7045 44.4887 33.1705 44.1591 32.8409C43.8295 32.5114 43.2956 32.5113 42.966 32.8409Z" fill="#FF9B21"/>
</svg>
