<svg width="55" height="55" viewBox="0 0 55 55" fill="none" xmlns="http://www.w3.org/2000/svg">
<path d="M7.17285 20.3055H27.796" stroke="#FF9B21" stroke-width="1.4" stroke-miterlimit="10" stroke-linecap="round" stroke-linejoin="round"/>
<path d="M7.17285 25.9663H27.796" stroke="#FF9B21" stroke-width="1.4" stroke-miterlimit="10" stroke-linecap="round" stroke-linejoin="round"/>
<path d="M7.17285 31.6268H27.796" stroke="#FF9B21" stroke-width="1.4" stroke-miterlimit="10" stroke-linecap="round" stroke-linejoin="round"/>
<path d="M7.17285 37.2876H27.796" stroke="#FF9B21" stroke-width="1.4" stroke-miterlimit="10" stroke-linecap="round" stroke-linejoin="round"/>
<path d="M7.17285 45.5834H17.5109" stroke="#FF9B21" stroke-width="1.4" stroke-miterlimit="10" stroke-linecap="round" stroke-linejoin="round"/>
<mask id="mask0_42_1424" style="mask-type:luminance" maskUnits="userSpaceOnUse" x="0" y="0" width="55" height="55">
<path d="M0 3.8147e-06H55V55H0V3.8147e-06Z" fill="white"/>
</mask>
<g mask="url(#mask0_42_1424)">
<path d="M20.1309 10.9771H18.7342C18.1817 10.9771 17.7339 10.5292 17.7339 9.97675V7.36275C17.7339 6.81028 18.1817 6.36243 18.7342 6.36243H35.2736C35.8261 6.36243 36.2739 6.81028 36.2739 7.36275V9.97675C36.2739 10.5292 35.8261 10.9771 35.2736 10.9771H23.8971M43.1031 14.7134V3.9882C43.1031 2.23174 41.6792 0.807865 39.9226 0.807865H12.5905C11.747 0.807865 10.938 1.14302 10.3416 1.73943L2.03546 10.0456C1.43905 10.642 1.104 11.4509 1.104 12.2944V51.0162C1.104 52.7727 2.52788 54.1965 4.28423 54.1965H39.9226C41.6792 54.1965 43.1031 52.7727 43.1031 51.0162V49.9313" stroke="#FF9B21" stroke-width="1.4" stroke-miterlimit="10" stroke-linecap="round" stroke-linejoin="round"/>
<path d="M38.2964 39.2071V47.3447C38.2964 48.0522 39.0722 48.4856 39.6747 48.1147L42.6291 46.2959C42.7745 46.2065 42.9388 46.1618 43.1031 46.1618C43.2674 46.1618 43.4319 46.2065 43.5771 46.2959L46.5316 48.1147C47.1341 48.4856 47.9098 48.0522 47.9098 47.3447V39.2071" stroke="#FF9B21" stroke-width="1.4" stroke-miterlimit="10" stroke-linecap="round" stroke-linejoin="round"/>
<path d="M43.1028 35.6439C39.8188 35.6439 37.1566 32.9816 37.1566 29.6977C37.1566 26.4137 39.8188 23.7514 43.1028 23.7514C46.3868 23.7514 49.049 26.4137 49.049 29.6977C49.049 32.9816 46.3868 35.6439 43.1028 35.6439ZM53.4708 31.0577C52.9118 30.2371 52.9118 29.1582 53.4708 28.3376C54.3606 27.0317 53.7775 25.2374 52.29 24.7038C51.3555 24.3686 50.7213 23.4957 50.6913 22.5032C50.6435 20.9238 49.117 19.8147 47.6002 20.2574C46.6471 20.5354 45.6208 20.202 45.0132 19.4167C44.5297 18.792 43.8163 18.4795 43.1028 18.4795C42.3893 18.4795 41.676 18.792 41.1925 19.4167C40.5848 20.202 39.5586 20.5354 38.6055 20.2574C37.0886 19.8147 35.5622 20.9238 35.5143 22.5032C35.4843 23.4957 34.8501 24.3686 33.9155 24.7038C32.4282 25.2374 31.8451 27.0317 32.7347 28.3376C33.2938 29.1582 33.2938 30.2371 32.7347 31.0577C31.8451 32.3635 32.4282 34.1579 33.9155 34.6915C34.8501 35.0266 35.4843 35.8997 35.5143 36.8921C35.5589 38.364 36.8877 39.4274 38.2961 39.207C38.399 39.191 38.5022 39.1681 38.6055 39.1379C39.5586 38.8598 40.5848 39.1932 41.1925 39.9785C42.1595 41.2282 44.0462 41.2282 45.0132 39.9785C45.6208 39.1932 46.6471 38.8598 47.6002 39.1379C47.7034 39.1681 47.8067 39.191 47.9095 39.207C49.318 39.4274 50.6468 38.364 50.6913 36.8921C50.7213 35.8997 51.3555 35.0266 52.29 34.6915C53.7775 34.1579 54.3606 32.3635 53.4708 31.0577Z" stroke="#FF9B21" stroke-width="1.4" stroke-miterlimit="10" stroke-linecap="round" stroke-linejoin="round"/>
<path d="M43.103 23.7515C39.819 23.7515 37.1567 26.4137 37.1567 29.6977C37.1567 32.9818 39.819 35.6439 43.103 35.6439C46.387 35.6439 49.0492 32.9818 49.0492 29.6977C49.0492 26.4137 46.387 23.7515 43.103 23.7515Z" stroke="#FF9B21" stroke-width="1.4" stroke-miterlimit="10" stroke-linecap="round" stroke-linejoin="round"/>
<path d="M11.2731 1.09359V9.00532C11.2731 10.0944 10.3903 10.9771 9.30148 10.9771H1.38965" stroke="#FF9B21" stroke-width="1.4" stroke-miterlimit="10" stroke-linecap="round" stroke-linejoin="round"/>
</g>
</svg>
