<svg width="56" height="56" viewBox="0 0 56 56" fill="none" xmlns="http://www.w3.org/2000/svg">
<path d="M49 35.0921V10.5C49 8.08777 47.0372 6.125 44.625 6.125H42.875V4.375C42.875 2.92749 41.6975 1.75 40.25 1.75C38.8025 1.75 37.625 2.92749 37.625 4.375V6.125H33.25V4.375C33.25 2.92749 32.0725 1.75 30.625 1.75C29.1775 1.75 28 2.92749 28 4.375V6.125H22.75V4.375C22.75 2.92749 21.5725 1.75 20.125 1.75C18.6775 1.75 17.5 2.92749 17.5 4.375V6.125H13.125V4.375C13.125 2.92749 11.9475 1.75 10.5 1.75C9.05249 1.75 7.875 2.92749 7.875 4.375V6.125H6.125C3.71276 6.125 1.75 8.08777 1.75 10.5V45.5C1.75 47.9122 3.71276 49.875 6.125 49.875H35.5455C37.3644 53.0082 40.7484 55.125 44.625 55.125C50.415 55.125 55.125 50.415 55.125 44.625C55.125 40.3975 52.6088 36.7552 49 35.0921ZM39.375 4.375C39.375 3.89221 39.7672 3.5 40.25 3.5C40.7328 3.5 41.125 3.89221 41.125 4.375V9.625C41.125 10.1078 40.7328 10.5 40.25 10.5C39.7672 10.5 39.375 10.1078 39.375 9.625V4.375ZM29.75 4.375C29.75 3.89221 30.1422 3.5 30.625 3.5C31.1078 3.5 31.5 3.89221 31.5 4.375V9.625C31.5 10.1078 31.1078 10.5 30.625 10.5C30.1422 10.5 29.75 10.1078 29.75 9.625V4.375ZM19.25 4.375C19.25 3.89221 19.6422 3.5 20.125 3.5C20.6078 3.5 21 3.89221 21 4.375V9.625C21 10.1078 20.6078 10.5 20.125 10.5C19.6422 10.5 19.25 10.1078 19.25 9.625V4.375ZM9.625 4.375C9.625 3.89221 10.0172 3.5 10.5 3.5C10.9828 3.5 11.375 3.89221 11.375 4.375V9.625C11.375 10.1078 10.9828 10.5 10.5 10.5C10.0172 10.5 9.625 10.1078 9.625 9.625V4.375ZM6.125 7.875H7.875V9.625C7.875 11.0725 9.05249 12.25 10.5 12.25C11.9475 12.25 13.125 11.0725 13.125 9.625V7.875H17.5V9.625C17.5 11.0725 18.6775 12.25 20.125 12.25C21.5725 12.25 22.75 11.0725 22.75 9.625V7.875H28V9.625C28 11.0725 29.1775 12.25 30.625 12.25C32.0725 12.25 33.25 11.0725 33.25 9.625V7.875H37.625V9.625C37.625 11.0725 38.8025 12.25 40.25 12.25C41.6975 12.25 42.875 11.0725 42.875 9.625V7.875H44.625C46.0725 7.875 47.25 9.05249 47.25 10.5V14.875H3.5V10.5C3.5 9.05249 4.67749 7.875 6.125 7.875ZM6.125 48.125C4.67749 48.125 3.5 46.9475 3.5 45.5V16.625H47.25V34.4705C46.4093 34.2529 45.5328 34.125 44.625 34.125C44.0275 34.125 43.4454 34.1867 42.875 34.283V29.75C42.875 29.2664 42.4836 28.875 42 28.875H36.75C36.2664 28.875 35.875 29.2664 35.875 29.75V35C35.875 35.4836 36.2664 35.875 36.75 35.875H38.8333C35.999 37.7572 34.125 40.9749 34.125 44.625C34.125 45.8536 34.3481 47.0283 34.7375 48.125H6.125ZM41.125 34.125H37.625V30.625H41.125V34.125ZM44.625 53.375C39.8005 53.375 35.875 49.4495 35.875 44.625C35.875 39.8005 39.8005 35.875 44.625 35.875C49.4495 35.875 53.375 39.8005 53.375 44.625C53.375 49.4495 49.4495 53.375 44.625 53.375Z" fill="#FF9B21"/>
<path d="M45.5 43.1177V37.625H43.75V43.1177C43.2291 43.4209 42.875 43.9788 42.875 44.625C42.875 44.7136 42.8884 44.7986 42.9011 44.8836L39.7031 47.4414L40.7969 48.8086L43.992 46.2524C44.1888 46.3291 44.4011 46.375 44.625 46.375C45.5915 46.375 46.375 45.5915 46.375 44.625C46.375 43.9788 46.0209 43.4209 45.5 43.1177Z" fill="#FF9B21"/>
<path d="M13.125 19.25H7.875C7.39136 19.25 7 19.6414 7 20.125V25.375C7 25.8586 7.39136 26.25 7.875 26.25H13.125C13.6086 26.25 14 25.8586 14 25.375V20.125C14 19.6414 13.6086 19.25 13.125 19.25ZM12.25 24.5H8.75V21H12.25V24.5Z" fill="#FF9B21"/>
<path d="M22.75 19.25H17.5C17.0164 19.25 16.625 19.6414 16.625 20.125V25.375C16.625 25.8586 17.0164 26.25 17.5 26.25H22.75C23.2336 26.25 23.625 25.8586 23.625 25.375V20.125C23.625 19.6414 23.2336 19.25 22.75 19.25ZM21.875 24.5H18.375V21H21.875V24.5Z" fill="#FF9B21"/>
<path d="M32.375 19.25H27.125C26.6414 19.25 26.25 19.6414 26.25 20.125V25.375C26.25 25.8586 26.6414 26.25 27.125 26.25H32.375C32.8586 26.25 33.25 25.8586 33.25 25.375V20.125C33.25 19.6414 32.8586 19.25 32.375 19.25ZM31.5 24.5H28V21H31.5V24.5Z" fill="#FF9B21"/>
<path d="M36.75 26.25H42C42.4836 26.25 42.875 25.8586 42.875 25.375V20.125C42.875 19.6414 42.4836 19.25 42 19.25H36.75C36.2664 19.25 35.875 19.6414 35.875 20.125V25.375C35.875 25.8586 36.2664 26.25 36.75 26.25ZM37.625 21H41.125V24.5H37.625V21Z" fill="#FF9B21"/>
<path d="M13.125 28.875H7.875C7.39136 28.875 7 29.2664 7 29.75V35C7 35.4836 7.39136 35.875 7.875 35.875H13.125C13.6086 35.875 14 35.4836 14 35V29.75C14 29.2664 13.6086 28.875 13.125 28.875ZM12.25 34.125H8.75V30.625H12.25V34.125Z" fill="#FF9B21"/>
<path d="M22.75 28.875H17.5C17.0164 28.875 16.625 29.2664 16.625 29.75V35C16.625 35.4836 17.0164 35.875 17.5 35.875H22.75C23.2336 35.875 23.625 35.4836 23.625 35V29.75C23.625 29.2664 23.2336 28.875 22.75 28.875ZM21.875 34.125H18.375V30.625H21.875V34.125Z" fill="#FF9B21"/>
<path d="M32.375 28.875H27.125C26.6414 28.875 26.25 29.2664 26.25 29.75V35C26.25 35.4836 26.6414 35.875 27.125 35.875H32.375C32.8586 35.875 33.25 35.4836 33.25 35V29.75C33.25 29.2664 32.8586 28.875 32.375 28.875ZM31.5 34.125H28V30.625H31.5V34.125Z" fill="#FF9B21"/>
<path d="M13.125 38.5H7.875C7.39136 38.5 7 38.8914 7 39.375V44.625C7 45.1086 7.39136 45.5 7.875 45.5H13.125C13.6086 45.5 14 45.1086 14 44.625V39.375C14 38.8914 13.6086 38.5 13.125 38.5ZM12.25 43.75H8.75V40.25H12.25V43.75Z" fill="#FF9B21"/>
<path d="M22.75 38.5H17.5C17.0164 38.5 16.625 38.8914 16.625 39.375V44.625C16.625 45.1086 17.0164 45.5 17.5 45.5H22.75C23.2336 45.5 23.625 45.1086 23.625 44.625V39.375C23.625 38.8914 23.2336 38.5 22.75 38.5ZM21.875 43.75H18.375V40.25H21.875V43.75Z" fill="#FF9B21"/>
<path d="M32.375 38.5H27.125C26.6414 38.5 26.25 38.8914 26.25 39.375V44.625C26.25 45.1086 26.6414 45.5 27.125 45.5H32.375C32.8586 45.5 33.25 45.1086 33.25 44.625V39.375C33.25 38.8914 32.8586 38.5 32.375 38.5ZM31.5 43.75H28V40.25H31.5V43.75Z" fill="#FF9B21"/>
</svg>
